<?xml version="1.0" encoding="iso-8859-1"?>
<!-- Generator: Adobe Illustrator 19.0.0, SVG Export Plug-In . SVG Version: 6.00 Build 0)  -->
<svg version="1.1" id="Capa_1" xmlns="http://www.w3.org/2000/svg" xmlns:xlink="http://www.w3.org/1999/xlink" x="0px" y="0px"
	 viewBox="0 0 512 512" style="enable-background:new 0 0 512 512;" xml:space="preserve" fill="#273f5b">
<g>
	<g>
		<path d="M467,60H308.52c-0.495,0-0.984,0.027-1.467,0.074C296.6,39.511,283.047,20.834,266.607,4.394
			c-5.857-5.858-15.355-5.858-21.213,0c-16.44,16.44-29.993,35.118-40.446,55.681C204.464,60.027,203.975,60,203.48,60H45
			C20.187,60,0,80.188,0,105v270c0,24.813,20.187,45,45,45h130.332l-20.217,62H136c-8.284,0-15,6.716-15,15s6.716,15,15,15
			c2.273,0,237.855,0,240,0c8.284,0,15-6.716,15-15s-6.716-15-15-15h-19.114l-20.217-62H467c24.813,0,45-20.187,45-45V105
			C512,80.188,491.813,60,467,60z M256,37.105c12.137,14.275,21.964,30.078,29.309,46.941C276.098,87.956,266.151,90,256,90
			c-10.151,0-20.098-2.044-29.309-5.955C234.036,67.183,243.863,51.381,256,37.105z M211,165.001
			c0-16.517,0.681-31.975,5.937-52.525C229.283,117.423,242.518,120,256,120c13.482,0,26.717-2.577,39.063-7.525
			C300.258,132.788,301,148.3,301,165.001v75c-9.109,0-75.331,0-90,0V165.001z M295.189,330h-78.377l20-60h38.377L295.189,330z
			 M30,105c0-8.271,6.729-15,15-15h147.395c-6.676,19.874-10.432,40.468-11.222,61.478C146.896,158.381,121,188.72,121,225.001v60
			c0,5.199,2.692,10.027,7.114,12.76c4.431,2.739,9.954,2.977,14.594,0.657L199.541,270h5.647l-20,60H30V105z M181,182.571v63.159
			l-30,15.001v-35.73C151,205.444,163.539,188.761,181,182.571z M186.669,482l20.218-62h98.228l20.217,62H186.669z M482,375
			c0,8.271-6.729,15-15,15c-4.664,0-419.627,0-422,0c-8.271,0-15-6.729-15-15v-15c16.414,0,434.639,0,452,0V375z M482,330H326.812
			l-20-60h5.647l56.833,28.417c4.642,2.321,10.164,2.081,14.594-0.657c4.422-2.733,7.114-7.561,7.114-12.76v-60
			c0-36.28-25.896-66.62-60.173-73.522c-0.789-21.011-4.546-41.604-11.222-61.478H467c8.271,0,15,6.729,15,15V330z M331,245.73
			v-63.159c17.461,6.191,30,22.874,30,42.43v35.729L331,245.73z"/>
	</g>
</g>
<g>
	<g>
		<circle cx="256" cy="165.001" r="15"/>
	</g>
</g>
<g>
</g>
<g>
</g>
<g>
</g>
<g>
</g>
<g>
</g>
<g>
</g>
<g>
</g>
<g>
</g>
<g>
</g>
<g>
</g>
<g>
</g>
<g>
</g>
<g>
</g>
<g>
</g>
<g>
</g>
</svg>
