<svg height="512pt" viewBox="0 -31 512 512" width="512pt" xmlns="http://www.w3.org/2000/svg" fill="#273f5b"><path d="m467 150h-15v-105c0-24.8125-20.1875-45-45-45-20.914062 0-38.542969 14.34375-43.566406 33.710938l-170.867188 56.289062h-117.566406c-8.285156 0-15 6.714844-15 15v16.507812c-34.191406 6.96875-60 37.273438-60 73.492188s25.808594 66.523438 60 73.492188v16.507812c0 8.285156 6.714844 15 15 15h17.703125l22.859375 114.292969c4.136719 20.691406 22.453125 35.707031 43.554688 35.707031 28.058593 0 49.046874-25.671875 43.554687-53.128906l-19.375-96.871094h9.269531l170.867188 56.289062c5.023437 19.367188 22.652344 33.710938 43.566406 33.710938 24.8125 0 45-20.1875 45-45v-105h15c24.8125 0 45-20.1875 45-45s-20.1875-45-45-45zm-377-30h90v150c-10.148438 0-78.039062 0-90 0zm-30 32.578125v84.839844c-39.871094-14.140625-39.914062-70.679688 0-84.839844zm113.253906 250.175781c1.785156 8.929688-5.027344 17.246094-14.136718 17.246094-6.851563 0-12.796876-4.875-14.140626-11.589844l-21.679687-108.410156h29.40625zm36.746094-286.941406 152-50v258.375l-152-50zm212 229.1875c0 8.269531-6.730469 15-15 15s-15-6.730469-15-15v-300c0-8.269531 6.730469-15 15-15s15 6.730469 15 15zm45-135h-15v-30h15c8.269531 0 15 6.730469 15 15s-6.730469 15-15 15zm0 0"/></svg>