<svg height="512pt" viewBox="-1 0 512 512" width="512pt" xmlns="http://www.w3.org/2000/svg" fill="#273f5b"><path d="m455 0h-400c-30.328125 0-55 24.671875-55 55v312c0 30.328125 24.671875 55 55 55h125v60h-45c-8.285156 0-15 6.714844-15 15s6.714844 15 15 15h240c8.285156 0 15-6.714844 15-15s-6.714844-15-15-15h-45v-60h125c30.328125 0 55-24.671875 55-55v-312c0-30.328125-24.671875-55-55-55zm-425 55c0-13.785156 11.214844-25 25-25h400c13.785156 0 25 11.214844 25 25v247h-450zm270 427h-90v-60h90zm180-115c0 13.785156-11.214844 25-25 25h-400c-13.785156 0-25-11.214844-25-25v-35h450zm0 0"/><path d="m335 91h-150.789062l-4.660157-18.636719c-1.667969-6.679687-7.667969-11.363281-14.550781-11.363281h-30c-8.285156 0-15 6.714844-15 15s6.714844 15 15 15h18.289062l27.160157 108.636719c1.667969 6.679687 7.667969 11.363281 14.550781 11.363281h120c7.03125 0 13.117188-4.882812 14.644531-11.746094l20-90c2.078125-9.355468-5.050781-18.253906-14.644531-18.253906zm-32.03125 90h-96.257812l-15-60h124.589843zm0 0"/><path d="m240 256c0 8.285156-6.714844 15-15 15s-15-6.714844-15-15 6.714844-15 15-15 15 6.714844 15 15zm0 0"/><path d="m300 256c0 8.285156-6.714844 15-15 15s-15-6.714844-15-15 6.714844-15 15-15 15 6.714844 15 15zm0 0"/></svg>