<svg height="512pt" viewBox="0 0 512.00037 512" width="512pt" xmlns="http://www.w3.org/2000/svg" fill="#273f5b"><path d="m498.832031 371.847656-115.832031-115.832031 102.011719-102.011719c35.121093-35.121094 35.121093-91.960937 0-127.085937-34.992188-34.988281-91.964844-35.027344-127.003907-.082031-5.46875 5.453124-97.949218 97.703124-102.222656 101.964843l-115.632812-115.632812c-17.558594-17.554688-45.972656-17.558594-63.53125 0l-63.484375 63.484375c-17.515625 17.515625-17.515625 46.015625 0 63.53125 31.523437 31.523437 112.09375 112.089844 115.472656 115.472656-.117187.117188-84.722656 84.511719-84.722656 84.511719-4.457031 4.457031-.730469-5.214844-42.304688 151.914062-2.9375 11.09375 7.246094 21.34375 18.425781 18.3125 158.53125-42.992187 147.71875-39.101562 151.851563-43.238281l84.125-84.125 115.832031 115.832031c17.515625 17.515625 46.019532 17.515625 63.535156 0l63.480469-63.480469c17.558594-17.558593 17.558594-45.976562 0-63.535156zm-338.078125 63.984375-85.039062-85.039062 204.980468-204.464844 84.78125 84.78125zm161.890625-331.347656 84.726563 84.730469-20.679688 20.683594-84.757812-84.757813zm56.550781-56.410156c23.339844-23.277344 61.292969-23.25 84.601563.058593 23.398437 23.394532 23.398437 61.261719 0 84.65625l-35.210937 35.210938-84.703126-84.703125zm-250.121093 165.621093 42.296875-42.292968c5.855468-5.859375 5.855468-15.355469 0-21.214844-5.859375-5.859375-15.355469-5.859375-21.214844 0l-42.292969 42.292969-41.5625-41.5625 21.132813-21.132813c5.859375-5.859375 5.859375-15.355468 0-21.214844-5.859375-5.855468-15.355469-5.855468-21.214844 0l-21.132812 21.136719-10.734376-10.734375c-5.820312-5.820312-5.820312-15.289062 0-21.109375l63.480469-63.480469c5.832031-5.835937 15.273438-5.835937 21.109375 0l115.605469 115.605469-84.695313 84.480469zm-66.753907 166.128907 69.234376 69.238281-94.324219 25.578125zm415.296876 34.34375-63.480469 63.480469c-5.820313 5.820312-15.289063 5.820312-21.105469 0l-10.734375-10.734376 21.132813-21.132812c5.859374-5.859375 5.859374-15.355469 0-21.214844-5.859376-5.859375-15.355469-5.859375-21.214844 0l-21.132813 21.132813-41.5625-41.5625 42.292969-42.292969c5.859375-5.859375 5.859375-15.355469 0-21.214844-5.855469-5.855468-15.355469-5.855468-21.210938 0l-42.296874 42.296875-21.105469-21.109375 84.585937-84.585937 115.832032 115.828125c5.832031 5.832031 5.835937 15.277344 0 21.109375zm0 0"/></svg>