<svg xmlns="http://www.w3.org/2000/svg" viewBox="0 0 512 512"><path d="M256 142.191c-62.754 0-113.809 51.054-113.809 113.809S193.246 369.809 256 369.809c62.755 0 113.81-51.054 113.81-113.809S318.755 142.191 256 142.191zm0 194.514c-44.501 0-80.705-36.204-80.705-80.705s36.204-80.705 80.705-80.705c44.502 0 80.706 36.204 80.706 80.705S300.502 336.705 256 336.705z" fill="#fff"/><path d="M470.882 186.59h-23.317a202.166 202.166 0 00-7.028-16.967l16.486-16.487c16.071-16.07 16.074-42.078.001-58.151l-40.011-40.011c-16.069-16.07-42.079-16.071-58.149 0l-16.488 16.488a201.868 201.868 0 00-16.966-7.028V41.118C325.41 18.446 306.964 0 284.291 0h-56.584c-22.673 0-41.118 18.445-41.118 41.118v23.317a201.672 201.672 0 00-16.966 7.028l-16.488-16.488c-16.07-16.07-42.078-16.071-58.149 0l-40.01 40.011c-16.07 16.07-16.071 42.078 0 58.15l16.488 16.487a201.83 201.83 0 00-7.028 16.967H41.118C18.445 186.59 0 205.036 0 227.709v56.584c0 22.673 18.445 41.118 41.118 41.118h23.317a201.83 201.83 0 007.028 16.967l-16.488 16.488c-16.07 16.07-16.071 42.078 0 58.15l40.011 40.011c16.071 16.071 42.078 16.071 58.15 0l16.488-16.488a201.81 201.81 0 0016.966 7.028v23.317c0 22.673 18.445 41.118 41.118 41.118h56.584c22.673 0 41.119-18.445 41.119-41.118v-23.317a201.534 201.534 0 0016.966-7.028l16.488 16.488c16.071 16.071 42.079 16.071 58.149 0l40.011-40.011c16.072-16.072 16.072-42.079 0-58.15l-16.487-16.488a202.501 202.501 0 007.028-16.967h23.317c22.673 0 41.119-18.445 41.119-41.118v-56.584c-.002-22.673-18.447-41.119-41.12-41.119zm8.016 97.702h-.001c0 4.419-3.596 8.014-8.015 8.014h-35.309a16.553 16.553 0 00-15.885 11.9 168.543 168.543 0 01-13.857 33.451 16.552 16.552 0 002.818 19.647l24.969 24.969a8.015 8.015 0 01-.001 11.334l-40.011 40.011a8.016 8.016 0 01-11.335 0l-24.968-24.968a16.55 16.55 0 00-19.647-2.817 168.632 168.632 0 01-33.45 13.855 16.553 16.553 0 00-11.9 15.885v35.31c0 4.419-3.596 8.014-8.015 8.014h-56.583c-4.419 0-8.014-3.595-8.014-8.014v-35.31c0-7.35-4.846-13.818-11.9-15.885a168.47 168.47 0 01-33.451-13.856 16.551 16.551 0 00-19.646 2.818l-24.968 24.968a8.016 8.016 0 01-11.335 0l-40.011-40.011a8.015 8.015 0 010-11.333l24.968-24.968a16.552 16.552 0 002.818-19.647 168.47 168.47 0 01-13.856-33.451 16.553 16.553 0 00-15.885-11.9h-35.31c-4.419 0-8.014-3.595-8.014-8.014V227.71c0-4.419 3.595-8.014 8.014-8.014h35.31c7.35 0 13.818-4.846 15.885-11.9a168.47 168.47 0 0113.856-33.451 16.552 16.552 0 00-2.818-19.647l-24.968-24.967a8.017 8.017 0 010-11.335l40.011-40.011a8.017 8.017 0 0111.335 0l24.968 24.968a16.551 16.551 0 0019.646 2.818 168.588 168.588 0 0133.451-13.856 16.553 16.553 0 0011.9-15.885V41.12c0-4.419 3.595-8.014 8.014-8.014h56.584c4.419 0 8.015 3.595 8.015 8.014v35.31c0 7.35 4.847 13.818 11.9 15.885a168.488 168.488 0 0133.45 13.855 16.552 16.552 0 0019.647-2.817l24.968-24.968a8.017 8.017 0 0111.335 0l40.011 40.012a8.013 8.013 0 010 11.333l-24.968 24.968a16.552 16.552 0 00-2.818 19.647 168.543 168.543 0 0113.857 33.451 16.553 16.553 0 0015.885 11.9h35.309c4.419 0 8.015 3.595 8.015 8.014v56.582z" fill="#fff"/><circle cx="256" cy="113.81" r="15.691" fill="#fff"/><circle cx="256" cy="398.19" r="15.691" fill="#fff"/><circle cx="398.19" cy="256" r="15.691" fill="#fff"/><circle cx="113.81" cy="256" r="15.691" fill="#fff"/><circle cx="356.546" cy="155.454" r="15.691" fill="#fff"/><circle cx="155.454" cy="356.546" r="15.691" fill="#fff"/><circle cx="356.546" cy="356.546" r="15.691" fill="#fff"/><circle cx="155.454" cy="155.454" r="15.691" fill="#fff"/></svg>