<svg height="512pt" viewBox="-1 0 512 512" width="512pt" xmlns="http://www.w3.org/2000/svg" fill="#273f5b"><path d="m455 0h-400c-30.328125 0-55 24.671875-55 55v312c0 30.328125 24.671875 55 55 55h125v60h-45c-8.285156 0-15 6.714844-15 15s6.714844 15 15 15h240c8.285156 0 15-6.714844 15-15s-6.714844-15-15-15h-45v-60h125c30.328125 0 55-24.671875 55-55v-312c0-30.328125-24.671875-55-55-55zm-425 55c0-13.785156 11.214844-25 25-25h400c13.785156 0 25 11.214844 25 25v247h-450zm270 427h-90v-60h90zm180-115c0 13.785156-11.214844 25-25 25h-400c-13.785156 0-25-11.214844-25-25v-35h450zm0 0"/><path d="m338.378906 94.171875c-5.980468-5.730469-15.476562-5.53125-21.207031.449219-5.734375 5.980468-5.53125 15.476562.449219 21.207031l52.34375 50.171875-52.34375 50.171875c-5.980469 5.730469-6.183594 15.226563-.449219 21.207031 5.730469 5.980469 15.226563 6.183594 21.207031.449219l63.640625-61c6.160157-5.902344 6.15625-15.753906 0-21.65625zm0 0"/><path d="m190.828125 94.621094c-5.730469-5.980469-15.226563-6.183594-21.207031-.449219l-63.640625 61c-6.15625 5.902344-6.15625 15.753906 0 21.65625l63.640625 61c5.984375 5.734375 15.480468 5.527344 21.207031-.449219 5.734375-5.980468 5.53125-15.476562-.449219-21.207031l-52.339844-50.171875 52.339844-50.171875c5.980469-5.730469 6.183594-15.226563.449219-21.207031zm0 0"/><path d="m273.582031 90.433594c-8.046875-1.976563-16.171875 2.9375-18.148437 10.984375l-30 122c-1.980469 8.046875 2.9375 16.171875 10.984375 18.148437 8.054687 1.980469 16.171875-2.949218 18.148437-10.984375l30-122c1.976563-8.046875-2.941406-16.171875-10.984375-18.148437zm0 0"/></svg>