<?xml version="1.0" encoding="iso-8859-1"?>
<!-- Generator: Adobe Illustrator 19.0.0, SVG Export Plug-In . SVG Version: 6.00 Build 0)  -->
<svg version="1.1" id="Capa_1" xmlns="http://www.w3.org/2000/svg" xmlns:xlink="http://www.w3.org/1999/xlink" x="0px" y="0px"
	 viewBox="0 0 512 512" style="enable-background:new 0 0 512 512;" xml:space="preserve" fill="#273f5b">
<g>
	<g>
		<path d="M497,421.996c-8.284,0-15,6.716-15,15v23.787l-61-61V225.996c0-6.1-3.741-11.652-9.429-13.927L271,155.84V51.209
			l16.82,16.82c5.857,5.858,15.355,5.858,21.213,0c5.858-5.858,5.858-15.355,0-21.213L266.606,4.389
			c-0.001-0.001-0.002-0.002-0.003-0.003c-5.873-5.869-15.387-5.815-21.206,0c-0.001,0.001-0.002,0.002-0.003,0.003l-42.426,42.426
			c-5.858,5.858-5.858,15.355,0,21.213c5.857,5.858,15.355,5.858,21.213,0L241,51.209V155.84l-140.571,56.228
			C94.715,214.355,91,219.913,91,225.996v173.787l-61,61v-23.787c0-8.284-6.716-15-15-15s-15,6.716-15,15v60
			c0,0.015,0.002,0.029,0.002,0.044c0.012,3.811,1.507,7.678,4.391,10.562c2.883,2.883,6.798,4.393,10.606,4.393h60
			c8.284,0,15-6.716,15-15s-6.716-15-15-15H51.213l58.399-58.399l140.817,56.327c0.021,0.009,0.043,0.014,0.065,0.022
			c3.499,1.381,7.439,1.41,11.013,0c0.021-0.008,0.043-0.014,0.064-0.022l140.817-56.327l58.399,58.399H437c-8.284,0-15,6.716-15,15
			s6.716,15,15,15h60c3.887,0,7.783-1.57,10.606-4.393c2.665-2.664,4.396-6.507,4.394-10.611v-59.995
			C512,428.712,505.284,421.996,497,421.996z M241,443.84l-120-48V248.151l120,48V443.84z M256,269.84l-109.611-43.844L256,182.151
			l109.611,43.844L256,269.84z M391,395.84l-120,48V296.151l120-48V395.84z"/>
	</g>
</g>
<g>
</g>
<g>
</g>
<g>
</g>
<g>
</g>
<g>
</g>
<g>
</g>
<g>
</g>
<g>
</g>
<g>
</g>
<g>
</g>
<g>
</g>
<g>
</g>
<g>
</g>
<g>
</g>
<g>
</g>
</svg>
