<svg height="512pt" viewBox="0 0 512.00009 512" width="512pt" xmlns="http://www.w3.org/2000/svg" fill="#273f5b"><path d="m483.679688 139.488281 22.695312-22.695312c9.40625-9.410157 2.746094-25.59375-10.601562-25.59375h-74.96875v-74.964844c0-13.359375-16.191407-20.007813-25.59375-10.601563l-22.695313 22.695313c-169.011719-86.613281-372.515625 35.621094-372.515625 227.792969 0 141.421875 114.445312 255.878906 255.882812 255.878906 192.28125 0 314.363282-203.589844 227.796876-372.511719zm-84.074219 41.667969h-47.554688l59.972657-59.972656h47.550781zm-143.722657 210.011719c-74.46875 0-135.050781-60.582031-135.050781-135.046875 0-93.023438 92.433594-158.382813 180.03125-127.375v61.191406l-3.671875 3.667969c-49.695312-32.949219-116.273437 2.972656-116.273437 62.515625 0 41.335937 33.628906 74.964844 74.964843 74.964844 59.628907 0 95.410157-66.664063 62.515626-116.277344l3.667968-3.667969h61.191406c31.042969 87.691406-34.453124 180.027344-127.375 180.027344zm0-90.070313c-24.800781 0-44.980468-20.175781-44.980468-44.976562 0-33.019532 34.621094-54.84375 64.363281-40.585938l-29.984375 29.984375c-5.855469 5.855469-5.855469 15.347657 0 21.203125 5.855469 5.855469 15.347656 5.855469 21.203125 0l29.984375-29.984375c14.273438 29.777344-7.605469 64.359375-40.585938 64.359375zm134.9375-201.117187-59.972656 59.972656v-47.554687l59.972656-59.972657zm-134.9375 382.03125c-124.558593 0-225.894531-101.332031-225.894531-225.890625 0-163.976563 170.480469-273.964844 320.09375-205.359375-49.132812 49.132812-45.566406 45.382812-46.777343 47.242187-105.785157-31.761718-212.457032 47.9375-212.457032 158.117188 0 91 74.035156 165.035156 165.035156 165.035156 110.011719 0 189.933594-106.5 158.121094-212.457031 1.902344-1.242188-1.566406 2.027343 47.238282-46.777344 68.65625 149.71875-41.480469 320.089844-205.359376 320.089844zm0 0"/></svg>