<svg xmlns="http://www.w3.org/2000/svg" viewBox="0 0 512 512" fill="#273f5b"><path d="M497 421.996c-8.284 0-15 6.716-15 15v23.787l-61-61V225.996c0-6.1-3.741-11.652-9.429-13.927L271 155.84V51.209l16.82 16.82c5.857 5.858 15.355 5.858 21.213 0 5.858-5.858 5.858-15.355 0-21.213L266.606 4.389l-.003-.003c-5.873-5.869-15.387-5.815-21.206 0l-.003.003-42.426 42.426c-5.858 5.858-5.858 15.355 0 21.213 5.857 5.858 15.355 5.858 21.213 0L241 51.209V155.84l-140.571 56.228A15.033 15.033 0 0091 225.996v173.787l-61 61v-23.787c0-8.284-6.716-15-15-15s-15 6.716-15 15v60l.002.044a15.06 15.06 0 004.391 10.562c2.883 2.883 6.798 4.393 10.606 4.393h60c8.284 0 15-6.716 15-15s-6.716-15-15-15H51.213l58.399-58.399 140.817 56.327c.021.009.043.014.065.022a15.008 15.008 0 0011.013 0l.064-.022 140.817-56.327 58.399 58.399H437c-8.284 0-15 6.716-15 15s6.716 15 15 15h60c3.887 0 7.783-1.57 10.606-4.393 2.665-2.664 4.396-6.507 4.394-10.611v-59.995c0-8.284-6.716-15-15-15zM241 443.84l-120-48V248.151l120 48V443.84zm15-174l-109.611-43.844L256 182.151l109.611 43.844L256 269.84zm135 126l-120 48V296.151l120-48V395.84z"/></svg>