<svg height="512pt" viewBox="-1 0 512 512" width="512pt" xmlns="http://www.w3.org/2000/svg" fill="#273f5b"><path d="M455 0H55C24.672 0 0 24.672 0 55v312c0 30.328 24.672 55 55 55h125v60h-45c-8.285 0-15 6.715-15 15s6.715 15 15 15h240c8.285 0 15-6.715 15-15s-6.715-15-15-15h-45v-60h125c30.328 0 55-24.672 55-55V55c0-30.328-24.672-55-55-55zM30 55c0-13.785 11.215-25 25-25h400c13.785 0 25 11.215 25 25v247H30zm270 427h-90v-60h90zm180-115c0 13.785-11.215 25-25 25H55c-13.785 0-25-11.215-25-25v-35h450zm0 0"/><path d="M338.379 94.172c-5.98-5.73-15.477-5.531-21.207.45-5.735 5.98-5.531 15.476.45 21.206L369.964 166l-52.344 50.172c-5.98 5.73-6.183 15.226-.45 21.207 5.731 5.98 15.227 6.184 21.208.45l63.64-61c6.16-5.903 6.157-15.755 0-21.657zm-147.551.449c-5.73-5.98-15.226-6.183-21.207-.45l-63.64 61c-6.157 5.903-6.157 15.755 0 21.657l63.64 61c5.984 5.734 15.48 5.527 21.207-.45 5.734-5.98 5.531-15.476-.45-21.206L138.04 166l52.34-50.172c5.98-5.73 6.184-15.226.45-21.207zm82.754-4.187c-8.047-1.977-16.172 2.937-18.148 10.984l-30 122c-1.98 8.047 2.937 16.172 10.984 18.148 8.055 1.98 16.172-2.949 18.148-10.984l30-122c1.977-8.047-2.941-16.172-10.984-18.148zm0 0"/></svg>