<svg height="512pt" viewBox="0 -31 512 512" width="512pt" xmlns="http://www.w3.org/2000/svg" fill="#273f5b"><path d="M467 150h-15V45c0-24.813-20.188-45-45-45-20.914 0-38.543 14.344-43.566 33.71L192.566 90H75c-8.285 0-15 6.715-15 15v16.508C25.809 128.477 0 158.78 0 195s25.809 66.523 60 73.492V285c0 8.285 6.715 15 15 15h17.703l22.86 114.293C119.698 434.984 138.015 450 159.116 450c28.059 0 49.047-25.672 43.555-53.129L183.297 300h9.27l170.867 56.29C368.457 375.655 386.086 390 407 390c24.813 0 45-20.188 45-45V240h15c24.813 0 45-20.188 45-45s-20.188-45-45-45zM90 120h90v150H90zm-30 32.578v84.84c-39.871-14.14-39.914-70.68 0-84.84zm113.254 250.176c1.785 8.93-5.027 17.246-14.137 17.246-6.851 0-12.797-4.875-14.14-11.59L123.297 300h29.406zM210 115.813l152-50v258.375l-152-50zM422 345c0 8.27-6.73 15-15 15s-15-6.73-15-15V45c0-8.27 6.73-15 15-15s15 6.73 15 15zm45-135h-15v-30h15c8.27 0 15 6.73 15 15s-6.73 15-15 15zm0 0"/></svg>