<svg height="512pt" viewBox="-1 0 512 512" width="512pt" xmlns="http://www.w3.org/2000/svg" fill="#273f5b"><path d="M455 0H55C24.672 0 0 24.672 0 55v312c0 30.328 24.672 55 55 55h125v60h-45c-8.285 0-15 6.715-15 15s6.715 15 15 15h240c8.285 0 15-6.715 15-15s-6.715-15-15-15h-45v-60h125c30.328 0 55-24.672 55-55V55c0-30.328-24.672-55-55-55zM30 55c0-13.785 11.215-25 25-25h400c13.785 0 25 11.215 25 25v247H30zm270 427h-90v-60h90zm180-115c0 13.785-11.215 25-25 25H55c-13.785 0-25-11.215-25-25v-35h450zm0 0"/><path d="M335 91H184.21l-4.66-18.637A14.996 14.996 0 00165 61h-30c-8.285 0-15 6.715-15 15s6.715 15 15 15h18.29l27.16 108.637A14.996 14.996 0 00195 211h120a15.003 15.003 0 0014.645-11.746l20-90C351.723 99.898 344.594 91 335 91zm-32.031 90H206.71l-15-60H316.3zM240 256c0 8.285-6.715 15-15 15s-15-6.715-15-15 6.715-15 15-15 15 6.715 15 15zm60 0c0 8.285-6.715 15-15 15s-15-6.715-15-15 6.715-15 15-15 15 6.715 15 15zm0 0"/></svg>