<svg height="512pt" viewBox="0 0 512 512" width="512pt" xmlns="http://www.w3.org/2000/svg" fill="#273f5b"><path d="M483.68 139.488l22.695-22.695c9.406-9.41 2.746-25.594-10.602-25.594h-74.968V16.234c0-13.359-16.192-20.007-25.594-10.601l-22.695 22.695C203.504-58.285 0 63.95 0 256.121 0 397.543 114.445 512 255.883 512c192.281 0 314.363-203.59 227.797-372.512zm-84.075 41.668h-47.554l59.972-59.972h47.551zM255.883 391.168c-74.469 0-135.051-60.582-135.051-135.047 0-93.023 92.434-158.383 180.031-127.375v61.191l-3.672 3.668c-49.695-32.949-116.273 2.973-116.273 62.516 0 41.336 33.629 74.965 74.965 74.965 59.629 0 95.41-66.664 62.515-116.277l3.668-3.668h61.192c31.043 87.691-34.453 180.027-127.375 180.027zm0-90.07c-24.801 0-44.98-20.176-44.98-44.977 0-33.02 34.62-54.844 64.363-40.586L245.28 245.52c-5.855 5.855-5.855 15.347 0 21.203 5.856 5.855 15.348 5.855 21.203 0l29.985-29.985c14.273 29.778-7.606 64.36-40.586 64.36zM390.82 99.98l-59.972 59.973v-47.555l59.972-59.972zM255.883 482.012c-124.559 0-225.895-101.332-225.895-225.89 0-163.977 170.48-273.966 320.094-205.36-49.133 49.133-45.566 45.383-46.777 47.242C197.52 66.242 90.848 145.94 90.848 256.12c0 91 74.035 165.035 165.035 165.035 110.012 0 189.933-106.5 158.12-212.457 1.903-1.242-1.566 2.028 47.24-46.777 68.655 149.719-41.481 320.09-205.36 320.09zm0 0"/></svg>