<svg height="512pt" viewBox="0 0 512 512" width="512pt" xmlns="http://www.w3.org/2000/svg" fill="#273f5b"><path d="M498.832 371.848L383 256.016l102.012-102.012c35.12-35.121 35.12-91.961 0-127.086-34.992-34.988-91.965-35.027-127.004-.082-5.469 5.453-97.95 97.703-102.223 101.965L140.152 13.168c-17.558-17.555-45.972-17.559-63.53 0L13.136 76.652c-17.516 17.516-17.516 46.016 0 63.532 31.523 31.523 112.093 112.09 115.472 115.472l-84.722 84.512c-4.457 4.457-.73-5.215-42.305 151.914-2.937 11.094 7.246 21.344 18.426 18.313 158.531-42.993 147.719-39.102 151.851-43.239l84.125-84.125 115.832 115.832c17.516 17.516 46.02 17.516 63.536 0l63.48-63.48c17.559-17.559 17.559-45.977 0-63.535zm-338.078 63.984l-85.04-85.039 204.981-204.465 84.782 84.781zm161.89-331.348l84.727 84.73-20.68 20.684-84.757-84.757zm56.551-56.41c23.34-23.277 61.293-23.25 84.602.059 23.398 23.394 23.398 61.262 0 84.656L428.586 168l-84.703-84.703zm-250.12 165.621l42.296-42.293c5.856-5.859 5.856-15.355 0-21.214-5.86-5.86-15.355-5.86-21.215 0l-42.293 42.292-41.562-41.562 21.133-21.133c5.859-5.86 5.859-15.355 0-21.215-5.86-5.855-15.356-5.855-21.215 0l-21.133 21.137-10.734-10.734c-5.82-5.82-5.82-15.29 0-21.11l63.48-63.48c5.832-5.836 15.273-5.836 21.11 0l115.605 115.605-84.695 84.48zM62.32 379.825l69.235 69.237-94.325 25.579zm415.297 34.343l-63.48 63.48c-5.82 5.82-15.29 5.82-21.106 0l-10.734-10.734 21.133-21.133c5.86-5.86 5.86-15.355 0-21.215-5.86-5.859-15.356-5.859-21.215 0L361.082 445.7l-41.562-41.562 42.292-42.293c5.86-5.86 5.86-15.356 0-21.215-5.855-5.856-15.355-5.856-21.21 0l-42.297 42.297-21.106-21.11 84.586-84.586L477.617 393.06c5.832 5.832 5.836 15.277 0 21.109zm0 0"/></svg>