<svg xmlns="http://www.w3.org/2000/svg" viewBox="0 0 512 512"><path d="M424 376h8V248c0-97.202-78.798-176-176-176S80 150.798 80 248v128h8c-17.6 0-32 14.4-32 32s14.4 32 32 32h336c17.6 0 32-14.4 32-32s-14.4-32-32-32z" fill="#ffd782"/><g fill="#ffc36e"><path d="M107 408c0-17.6 14.4-32 32-32h-8V248c0-88.541 65.384-161.799 150.5-174.154A177.36 177.36 0 00256 72c-97.202 0-176 78.798-176 176v128h8c-17.6 0-32 14.4-32 32s14.4 32 32 32h51c-17.6 0-32-14.4-32-32z"/><circle cx="256" cy="40" r="32"/><path d="M327.561 439.999c-3.979 36-34.5 64.001-71.561 64.001s-67.582-28.001-71.561-64.001h143.122z"/></g><path d="M218.879 439.999H184.44c3.979 36 34.5 64.001 71.561 64.001 5.936 0 11.701-.727 17.22-2.081-28.936-7.103-51-31.687-54.342-61.92z" fill="#e1b464"/><g fill="#2d2b29"><path d="M368 368h-15.996a8 8 0 000 16H368a8 8 0 000-16z"/><path d="M440 371.35V248c0-91.255-66.779-167.193-154.033-181.547C292.203 59.396 296 50.136 296 40c0-22.056-17.944-40-40-40s-40 17.944-40 40c0 10.136 3.797 19.396 10.033 26.453C138.779 80.807 72 156.745 72 248v123.35c-14.112 6.186-24 20.281-24 36.65 0 22.056 17.944 40 40 40h89.605c7.461 36.95 39.977 64 78.395 64s70.934-27.05 78.395-64H424c22.056 0 40-17.944 40-40 0-16.369-9.888-30.465-24-36.65zM232 40c0-13.233 10.767-24 24-24s24 10.767 24 24-10.767 24-24 24-24-10.767-24-24zm24 456c-29.621 0-54.86-20.091-61.993-48h89.702c-5.602 9.654-16.071 16-27.709 16a8 8 0 000 16c20.491 0 38.577-13.121 45.259-32h16.734c-7.133 27.909-32.372 48-61.993 48zm168-64H88c-13.234 0-24-10.767-24-24s10.766-24 24-24h232.002a8 8 0 000-16H88V248c0-92.636 75.364-168 168-168s168 75.364 168 168v120h-24a8 8 0 000 16h24c13.234 0 24 10.767 24 24s-10.766 24-24 24z"/><path d="M392 248v8a8 8 0 0016 0v-8c0-30.07-8.768-59.146-25.355-84.083a8 8 0 00-13.322 8.862C384.158 195.082 392 221.093 392 248zm-40.024-99.352a8.001 8.001 0 005.338-13.962 153.085 153.085 0 00-17.272-13.359 8 8 0 00-8.858 13.324 137.17 137.17 0 0115.462 11.959 7.958 7.958 0 005.33 2.038z"/></g></svg>