<svg xmlns="http://www.w3.org/2000/svg" viewBox="0 0 512 512"><path d="M71.394 226.422c-5.632 0-10.199-4.566-10.199-10.199 0-59.369 26.589-114.762 72.951-151.98 4.392-3.526 10.811-2.824 14.338 1.569s2.825 10.812-1.569 14.339c-41.513 33.325-65.322 82.922-65.322 136.073.001 5.632-4.567 10.198-10.199 10.198zm10.667 61.957c-4.192 0-8.121-2.605-9.608-6.78a194.428 194.428 0 01-5.975-20.178c-1.303-5.48 2.083-10.979 7.563-12.282 5.473-1.303 10.978 2.082 12.282 7.563a174.463 174.463 0 005.345 18.055c1.891 5.307-.879 11.14-6.185 13.029a10.21 10.21 0 01-3.422.593z"/><path d="M46.915 323.531a10.201 10.201 0 01-9.254-5.899c-14.839-31.896-22.363-66.014-22.363-101.409 0-71.317 31.371-138.545 86.067-184.447 4.316-3.62 10.748-3.059 14.37 1.257 3.621 4.314 3.059 10.748-1.256 14.369C64.412 89.417 35.697 150.95 35.697 216.223c0 32.4 6.883 63.623 20.459 92.804 2.376 5.108.162 11.174-4.946 13.55a10.165 10.165 0 01-4.295.954zm383.024-35.152a10.18 10.18 0 01-3.422-.595c-5.307-1.891-8.076-7.724-6.185-13.031 6.685-18.769 10.074-38.461 10.074-58.531 0-53.151-23.809-102.748-65.322-136.074-4.394-3.527-5.096-9.945-1.569-14.339 3.525-4.394 9.946-5.095 14.338-1.569 46.361 37.219 72.951 92.613 72.951 151.981 0 22.409-3.788 44.405-11.258 65.376-1.486 4.176-5.415 6.782-9.607 6.782zM414.085 58.692c-2.51 0-5.024-.92-6.995-2.778a222.132 222.132 0 00-9.569-8.514c-4.314-3.622-4.876-10.054-1.255-14.37 3.621-4.314 10.054-4.875 14.369-1.254a243.062 243.062 0 0110.449 9.297c4.099 3.864 4.288 10.32.424 14.418a10.175 10.175 0 01-7.423 3.201z"/><path d="M465.085 323.531c-1.44 0-2.904-.307-4.295-.955-5.108-2.376-7.322-8.442-4.946-13.55 13.575-29.181 20.459-60.404 20.459-92.804 0-47.41-14.832-92.576-42.893-130.615-3.343-4.534-2.379-10.919 2.153-14.263s10.919-2.379 14.262 2.153c30.667 41.572 46.877 90.925 46.877 142.725 0 35.394-7.524 69.513-22.363 101.409a10.2 10.2 0 01-9.254 5.9z"/><path d="M227.908 75.412c0-15.515 12.577-28.092 28.092-28.092s28.092 12.577 28.092 28.092c0 1.302-.096 2.581-.267 3.837a136.316 136.316 0 0135.308 12.557 65.341 65.341 0 002.081-16.394c0-36.016-29.197-65.213-65.213-65.213s-65.213 29.196-65.213 65.213c0 5.602.708 11.039 2.037 16.227a137.476 137.476 0 0135.347-12.426 28.201 28.201 0 01-.264-3.801z" fill="#d1392a"/><path d="M394.451 302.15v-85.959c0-53.911-30.534-101.11-75.319-124.385a136.316 136.316 0 00-35.308-12.557 137.44 137.44 0 00-27.753-2.834 139.068 139.068 0 00-27.9 2.798 137.463 137.463 0 00-35.347 12.426c-44.696 22.96-75.275 69.522-75.275 123.227v87.285c0 49.286-39.954 148.484-89.24 148.484H483.69c-49.285-.001-89.239-99.199-89.239-148.485z" fill="#ffbc52"/><path d="M204.834 450.634c0 28.258 22.907 51.166 51.166 51.166s51.166-22.908 51.166-51.166H204.834z" fill="#ededed"/><path d="M483.691 440.435c-39.202 0-79.041-88.716-79.041-138.284v-85.96c0-27.968-7.74-55.299-22.383-79.036-12.912-20.93-30.685-38.299-51.679-50.639.543-3.668.824-7.38.824-11.104C331.411 33.83 297.582 0 256 0s-75.412 33.83-75.412 75.412c0 3.651.271 7.29.792 10.887-45.851 26.596-74.031 75.161-74.031 128.567v87.285c0 49.568-39.84 138.284-79.041 138.284-5.633 0-10.199 4.566-10.199 10.199s4.566 10.199 10.199 10.199h167.188C200.372 489.831 225.639 512 256 512s55.629-22.169 60.502-51.166h167.189c5.632 0 10.199-4.566 10.199-10.199 0-5.634-4.566-10.2-10.199-10.2zM256 20.398c30.334 0 55.012 24.679 55.012 55.013 0 .479-.006.958-.019 1.436l.027.027a146.24 146.24 0 00-17.004-5.67l.043-.009c-2.104-19.137-18.37-34.075-38.058-34.075-19.668 0-35.92 14.906-38.053 34.013l.034.011a147.396 147.396 0 00-17.005 5.608l.028-.027c-.01-.439-.015-.876-.015-1.316-.003-30.332 24.676-55.011 55.01-55.011zm15.816 46.671a148.19 148.19 0 00-15.739-.853 150.813 150.813 0 00-15.887.841c3.007-5.666 8.962-9.538 15.811-9.538 6.852 0 12.81 3.877 15.815 9.55zM256 491.602c-19.069 0-35.138-13.097-39.683-30.768h79.365c-4.545 17.671-20.613 30.768-39.682 30.768zm51.166-51.167H71.41c10.362-10.107 20.169-23.828 29.044-40.844 16.325-31.298 27.294-70.456 27.294-97.441v-87.285c0-48.317 26.722-92.058 69.737-114.155a127.334 127.334 0 0132.726-11.505A129.201 129.201 0 01256 86.612h.066a127.53 127.53 0 0125.694 2.623 126.224 126.224 0 0132.669 11.619c43.068 22.383 69.823 66.576 69.823 115.336v85.96c0 26.985 10.969 66.143 27.294 97.441 8.875 17.015 18.682 30.736 29.045 40.844H307.166z"/><path d="M156.836 289.169c-5.633 0-10.199-4.566-10.199-10.199v-62.515c0-41.198 22.781-78.492 59.453-97.332 5.013-2.573 11.159-.599 13.732 4.412 2.573 5.011.599 11.158-4.412 13.732-29.839 15.328-48.376 45.672-48.376 79.188v62.515c.001 5.633-4.565 10.199-10.198 10.199zm119.103-159.647c-.684 0-1.379-.069-2.075-.213a88.529 88.529 0 00-17.818-1.819c-5.633-.003-10.197-4.571-10.194-10.204.003-5.631 4.569-10.194 10.199-10.194h.005c7.377.004 14.757.758 21.935 2.241 5.516 1.139 9.065 6.536 7.925 12.051-.996 4.821-5.242 8.138-9.977 8.138z"/></svg>