<svg xmlns="http://www.w3.org/2000/svg" viewBox="0 0 457.944 457.944"><g fill="#00aef0"><path d="M232.989 182.012c-33.693 0-62.711 20.378-75.391 49.453-12.681-29.075-41.699-49.453-75.391-49.453a81.715 81.715 0 00-42.92 12.121v-67.64c0-10.849-8.795-19.643-19.643-19.643S0 115.644 0 126.494v137.724c0 45.329 36.878 82.206 82.206 82.206 33.693 0 62.711-20.378 75.391-49.453 12.681 29.076 41.699 49.453 75.391 49.453 45.328 0 82.206-36.878 82.206-82.206.002-45.328-36.876-82.206-82.205-82.206zM82.206 307.137c-23.666 0-42.92-19.253-42.92-42.92 0-23.665 19.254-42.919 42.92-42.919s42.919 19.253 42.919 42.919c.001 23.667-19.253 42.92-42.919 42.92zm150.783 0c-23.666 0-42.919-19.253-42.919-42.92 0-23.665 19.253-42.919 42.919-42.919s42.919 19.253 42.919 42.919c.001 23.667-19.253 42.92-42.919 42.92z"/><path d="M404.896 263.403l48.192-55.117c7.141-8.167 6.309-20.577-1.858-27.718s-20.577-6.309-27.718 1.858l-44.709 51.134-44.709-51.134c-7.141-8.167-19.55-8.998-27.718-1.858-8.167 7.141-8.999 19.551-1.858 27.718l48.192 55.117-48.192 55.117c-7.141 8.167-6.309 20.577 1.858 27.718a19.562 19.562 0 0012.922 4.855c5.47 0 10.913-2.272 14.796-6.713l44.709-51.134 44.709 51.134c3.884 4.442 9.325 6.713 14.796 6.713 4.588 0 9.196-1.599 12.922-4.855 8.167-7.141 8.999-19.551 1.858-27.718l-48.192-55.117z"/></g></svg>