<svg xmlns="http://www.w3.org/2000/svg" viewBox="0 0 512 512"><g fill="#e4f5f4"><path d="M334.314 249.162h78.579v78.567h-78.579zm0 78.567h78.579v78.579h-78.579z"/><path d="M255.748 327.729h78.567v78.579h-78.567zm0-78.567h78.567v78.567h-78.567zm-78.579 0h78.579v78.567h-78.579zm0 78.567h78.579v78.579h-78.579zm-78.567 0h78.567v78.579H98.602zm0-78.567h78.567v78.567H98.602z"/></g><path d="M499.734 179.334v278.764c0 9.964-8.077 18.028-18.028 18.028H29.799c-9.964 0-18.028-8.065-18.028-18.028V179.334h487.963zm-86.836 226.975V249.163H98.607v157.146h314.291z" fill="#f27258"/><path d="M130.589 72.463h351.115c9.952 0 18.028 8.077 18.028 18.028v88.843H11.771V90.491c0-9.952 8.065-18.028 18.028-18.028h100.79z" fill="#ffdb6f"/><g fill="#201f2e"><path d="M481.953 59.181h-88.778V37.136c0-6.637-5.381-12.019-12.019-12.019s-12.019 5.382-12.019 12.019v22.045h-59.399V37.136c0-6.637-5.381-12.019-12.019-12.019S285.7 30.499 285.7 37.136v22.045h-59.4V37.136c0-6.637-5.381-12.019-12.019-12.019s-12.019 5.382-12.019 12.019v22.045h-59.399V37.136c0-6.637-5.381-12.019-12.019-12.019s-12.019 5.382-12.019 12.019v22.045H30.047C13.479 59.181 0 72.66 0 89.228v367.608c0 16.568 13.479 30.047 30.047 30.047h451.906c16.568 0 30.047-13.479 30.047-30.047V89.228c0-16.568-13.479-30.047-30.047-30.047zm6.009 397.656a6.016 6.016 0 01-6.009 6.009H30.047a6.016 6.016 0 01-6.009-6.009V190.088H450.3c6.638 0 12.019-5.382 12.019-12.019 0-6.637-5.381-12.019-12.019-12.019H24.038V89.228a6.016 6.016 0 016.009-6.009h88.778v22.045c0 6.637 5.381 12.019 12.019 12.019s12.019-5.382 12.019-12.019V83.219h59.399v22.045c0 6.637 5.381 12.019 12.019 12.019s12.019-5.382 12.019-12.019V83.219h59.4v22.045c0 6.637 5.381 12.019 12.019 12.019s12.019-5.382 12.019-12.019V83.219h59.399v22.045c0 6.637 5.381 12.019 12.019 12.019s12.019-5.382 12.019-12.019V83.219h88.779a6.016 6.016 0 016.009 6.009v367.609z"/><path d="M413.146 237.077H98.854c-5.975 0-10.817 4.842-10.817 10.817v157.147c0 5.975 4.842 10.817 10.817 10.817h314.292c5.975 0 10.817-4.842 10.817-10.817V247.894c-.001-5.975-4.843-10.817-10.817-10.817zM166.61 394.224h-56.939v-56.939h56.939v56.939zm0-78.573h-56.939v-56.94h56.939v56.94zm78.573 78.573h-56.939v-56.939h56.939v56.939zm0-78.573h-56.939v-56.94h56.939v56.94zm78.573 78.573h-56.939v-56.939h56.939v56.939zm0-78.573h-56.939v-56.94h56.939v56.94zm78.573 78.573H345.39v-56.939h56.939v56.939zm0-78.573H345.39v-56.94h56.939v56.94z"/></g></svg>