<svg xmlns="http://www.w3.org/2000/svg" viewBox="0 0 511.999 511.999"><path d="M499.675 228.595V369.16c0 9.252-7.501 16.752-16.752 16.752h-20.376v64.521l-64.522-64.521H242.507c-9.252 0-16.752-7.501-16.752-16.752V228.594c0-9.252 7.501-16.752 16.752-16.752h240.416c9.252 0 16.752 7.501 16.752 16.753z" fill="#e4f5f4"/><path d="M388.798 80.855v130.988h-146.29c-9.252 0-16.752 7.501-16.752 16.752v75.066h-74.039L62.93 392.459V303.66H28.58c-9.252 0-16.752-7.501-16.752-16.752V80.855c0-9.252 7.501-16.752 16.752-16.752h343.466c9.251-.001 16.752 7.5 16.752 16.752z" fill="#31ccc9"/><g fill="#201f2e"><path d="M174.075 290.318h-22.114c-3.361 0-6.4 1.376-8.59 3.593l-68.115 68.115v-59.629c0-.827-.053-1.419-.158-1.823-.881-5.802-5.877-10.256-11.926-10.256H28.831a4.68 4.68 0 01-4.674-4.674V79.589a4.68 4.68 0 014.674-4.674H372.29a4.68 4.68 0 014.674 4.674v79.055c0 6.67 5.409 12.078 12.078 12.078s12.078-5.409 12.078-12.078V79.589c0-15.897-12.933-28.831-28.831-28.831H28.831C12.933 50.757 0 63.691 0 79.589v206.056c0 15.897 12.933 28.831 28.831 28.831H51.1v76.711a12.079 12.079 0 0020.619 8.54l85.251-85.251h17.104c6.67 0 12.078-5.409 12.078-12.078s-5.407-12.08-12.077-12.08z"/><path d="M483.169 198.491H242.754c-15.897 0-28.831 12.933-28.831 28.831v140.57c0 15.897 12.933 28.831 28.831 28.831h150.514l60.98 60.98a12.075 12.075 0 0013.163 2.619 12.08 12.08 0 007.456-11.159v-52.44h8.301c15.897 0 28.831-12.933 28.831-28.831v-140.57c.001-15.898-12.932-28.831-28.83-28.831zm4.675 169.401a4.68 4.68 0 01-4.674 4.674h-20.376c-6.44 0-11.688 5.045-12.043 11.396a6.112 6.112 0 00-.037.682v35.358l-43.857-43.857a12.04 12.04 0 00-8.579-3.58H242.754a4.68 4.68 0 01-4.674-4.674V227.322a4.68 4.68 0 014.674-4.674H483.17a4.68 4.68 0 014.674 4.674v140.57z"/><path d="M362.964 285.53a12.068 12.068 0 00-12.078 12.078c0 6.667 5.4 12.078 12.078 12.078 6.668 0 12.078-5.411 12.078-12.078 0-6.679-5.411-12.078-12.078-12.078zM90.65 130.612c-6.67 0-12.078 5.409-12.078 12.078 0 6.67 5.409 12.078 12.078 12.078h219.822c6.67 0 12.078-5.409 12.078-12.078 0-6.67-5.409-12.078-12.078-12.078H90.65zm83.425 79.853H90.65c-6.67 0-12.078 5.409-12.078 12.078s5.409 12.078 12.078 12.078h83.425c6.67 0 12.078-5.409 12.078-12.078s-5.408-12.078-12.078-12.078zm132.762 75.065a12.068 12.068 0 00-12.078 12.078c0 6.667 5.4 12.078 12.078 12.078 6.668 0 12.078-5.411 12.078-12.078 0-6.679-5.411-12.078-12.078-12.078zm112.242 0a12.068 12.068 0 00-12.078 12.078c0 6.667 5.4 12.078 12.078 12.078 6.668 0 12.078-5.411 12.078-12.078 0-6.679-5.411-12.078-12.078-12.078z"/></g></svg>