<svg xmlns="http://www.w3.org/2000/svg" viewBox="0 0 512 512"><path d="M256 26.947v25.151c37.726 26.049 62.877 69.165 62.877 118.568S293.726 263.186 256 289.235v43.116h26.947v53.895l53.895-53.895h134.737c9.881 0 17.965-8.084 17.965-17.965V26.947c0-9.881-8.084-17.965-17.965-17.965H273.965c-9.881 0-17.965 8.085-17.965 17.965" fill="#15a143"/><path d="M256 26.947v25.151c37.726 26.049 62.877 69.165 62.877 118.568S293.726 263.186 256 289.235v43.116h26.947v53.895l53.895-53.895h107.789c9.881 0 17.965-8.084 17.965-17.965V26.947c0-9.881-8.084-17.965-17.965-17.965H273.965c-9.881 0-17.965 8.085-17.965 17.965" fill="#1cd759"/><path d="M175.158 26.947c-79.046 0-143.719 64.674-143.719 143.719 0 44.912 20.66 85.333 53.895 112.281v67.368l44.014-44.014c14.372 4.491 29.642 8.084 45.811 8.084 79.046 0 143.719-64.674 143.719-143.719S254.204 26.947 175.158 26.947" fill="#fff"/><path d="M188.632 35.93c-71.86 0-130.246 62.877-130.246 140.126 0 44.014 18.863 83.537 48.505 108.688v65.572l39.523-42.218c13.474 4.491 26.947 7.186 42.218 7.186 71.86 0 130.246-62.877 130.246-140.126-.001-76.351-58.387-139.228-130.246-139.228" fill="#ffdd09"/><path d="M282.947 332.351H256v-43.116c-23.354 16.168-51.2 25.151-80.842 25.151-16.168 0-31.439-2.695-45.811-8.084l-44.014 44.014v-67.368c-10.779-8.982-20.66-19.761-28.744-31.439H40.421c-9.881 0-17.965 8.084-17.965 17.965v161.684c0 9.881 8.084 17.965 17.965 17.965v53.895l53.895-53.895H291.93c9.881 0 17.965-8.084 17.965-17.965v-71.86l-26.947 26.947v-53.894z" fill="#fff"/><path d="M67.368 260.491c-9.881 0-17.965-.898-17.965 8.982v161.684c0 9.881 8.084 17.965 17.965 17.965v26.947l26.947-26.947H291.93c9.881 0 17.965-8.084 17.965-17.965v-71.86l-26.947 26.947v-53.895H256v-43.116c-23.354 16.168-51.2 25.151-80.842 25.151-16.168 0-39.523-2.695-53.895-8.084l-35.93 44.014v-67.368l-17.965-22.455z" fill="#54c9fd"/><path d="M85.333 359.298c-.898 0-2.695 0-3.593-.898-3.593-.898-5.389-4.491-5.389-8.084V286.54c-34.133-28.744-53.895-70.961-53.895-115.874 0-84.435 68.267-152.702 152.702-152.702S327.86 86.232 327.86 170.667s-68.267 152.702-152.702 152.702c-14.372 0-29.642-1.796-44.014-6.288l-39.523 39.523c-1.796 1.796-3.593 2.694-6.288 2.694zM175.158 35.93c-74.554 0-134.737 60.182-134.737 134.737 0 41.319 18.863 79.046 50.302 105.095 2.695 1.796 3.593 4.491 3.593 7.186v45.811l28.744-28.744c2.695-2.695 6.288-3.593 8.982-1.796 14.372 4.491 28.744 7.186 43.116 7.186 74.554 0 134.737-60.182 134.737-134.737S249.712 35.93 175.158 35.93z"/><path d="M282.947 395.228c-.898 0-2.695 0-3.593-.898-3.593-.898-5.389-4.491-5.389-8.084v-44.912H256c-5.389 0-8.982-3.593-8.982-8.982v-43.116c0-2.695 1.796-5.389 3.593-7.186 36.828-25.151 59.284-66.47 59.284-111.382s-22.456-86.232-59.284-111.382c-1.796-1.796-3.593-4.491-3.593-7.186V26.947C247.018 11.677 258.695 0 273.965 0h197.614c15.27 0 26.947 11.677 26.947 26.947v287.439c0 15.27-11.677 26.947-26.947 26.947H340.435l-51.2 51.2c-1.796 1.797-3.593 2.695-6.288 2.695zm-17.965-71.86h17.965c5.389 0 8.982 3.593 8.982 8.982v32.337l38.625-38.625c1.797-1.796 3.593-2.695 6.288-2.695h134.737c5.389 0 8.982-3.593 8.982-8.982V26.947c0-5.389-3.593-8.982-8.982-8.982H273.965c-5.389 0-8.982 3.593-8.982 8.982v20.66c39.523 28.744 62.877 74.554 62.877 123.06s-23.354 94.316-62.877 123.06v29.641z"/><path d="M40.421 512c-.898 0-2.695 0-3.593-.898-3.593-.898-5.389-4.491-5.389-8.084v-46.709c-10.779-3.593-17.965-13.474-17.965-25.151V269.474c0-15.27 11.677-26.947 26.947-26.947h16.168c2.695 0 5.389 1.796 7.186 3.593 8.084 11.677 17.067 21.558 26.947 29.642 2.695 1.797 3.593 4.491 3.593 7.186v45.811l28.744-28.744c2.695-2.695 6.288-3.593 8.982-1.796 40.421 13.474 84.435 7.186 119.467-16.168 2.695-1.797 6.288-1.797 8.982-.898 2.695 1.797 4.491 4.491 4.491 8.084v34.133h17.965c5.389 0 8.982 3.593 8.982 8.982v32.337l11.677-11.677c2.695-2.695 6.288-3.593 9.881-1.797 3.593 1.797 5.389 4.491 5.389 8.084v71.86c0 15.27-11.677 26.947-26.947 26.947H97.909l-51.2 51.2c-1.797 1.796-3.593 2.694-6.288 2.694zm0-251.509c-5.389 0-8.982 3.593-8.982 8.982v161.684c0 5.389 3.593 8.982 8.982 8.982s8.982 3.593 8.982 8.982v32.337l38.625-38.625c1.796-1.797 3.593-2.695 6.288-2.695H291.93c5.389 0 8.982-3.593 8.982-8.982v-50.302l-11.677 11.677c-2.695 2.695-6.288 3.593-9.881 1.796-3.593-.898-5.389-4.491-5.389-8.084v-44.912H256c-5.389 0-8.982-3.593-8.982-8.982v-26.947c-35.032 18.863-76.351 23.354-115.874 11.677l-39.523 39.523c-2.695 2.695-6.288 3.593-9.881 1.797-3.593-.898-5.389-4.491-5.389-8.084V286.54c-8.982-8.084-17.067-16.168-24.253-26.049H40.421zM435.649 89.825h-62.877c-5.389 0-8.982-3.593-8.982-8.982 0-5.389 3.593-8.982 8.982-8.982h62.877c5.389 0 8.982 3.593 8.982 8.982.001 5.389-3.592 8.982-8.982 8.982zm-98.807 0H291.93c-5.389 0-8.982-3.593-8.982-8.982 0-5.389 3.593-8.982 8.982-8.982h44.912c5.389 0 8.982 3.593 8.982 8.982.001 5.389-3.592 8.982-8.982 8.982zm98.807 44.912h-26.947c-5.389 0-8.982-3.593-8.982-8.982 0-5.389 3.593-8.982 8.982-8.982h26.947c5.389 0 8.982 3.593 8.982 8.982.001 5.389-3.592 8.982-8.982 8.982zm-62.877 0h-53.895c-5.389 0-8.982-3.593-8.982-8.982 0-5.389 3.593-8.982 8.982-8.982h53.895c5.389 0 8.982 3.593 8.982 8.982 0 5.389-3.593 8.982-8.982 8.982zm62.877 44.912h-53.895c-5.389 0-8.982-3.593-8.982-8.982s3.593-8.982 8.982-8.982h53.895c5.389 0 8.982 3.593 8.982 8.982s-3.592 8.982-8.982 8.982zm-89.824 0h-26.947c-5.389 0-8.982-3.593-8.982-8.982s3.593-8.982 8.982-8.982h26.947c5.389 0 8.982 3.593 8.982 8.982s-3.593 8.982-8.982 8.982zm89.824 44.912h-26.947c-5.389 0-8.982-3.593-8.982-8.982s3.593-8.982 8.982-8.982h26.947c5.389 0 8.982 3.593 8.982 8.982s-3.592 8.982-8.982 8.982zm-62.877 0h-53.895c-5.389 0-8.982-3.593-8.982-8.982s3.593-8.982 8.982-8.982h53.895c5.389 0 8.982 3.593 8.982 8.982s-3.593 8.982-8.982 8.982zm62.877 44.913h-44.912c-5.389 0-8.982-3.593-8.982-8.982 0-5.389 3.593-8.982 8.982-8.982h44.912c5.389 0 8.982 3.593 8.982 8.982.001 5.389-3.592 8.982-8.982 8.982zm-80.842 0H291.93c-5.389 0-8.982-3.593-8.982-8.982 0-5.389 3.593-8.982 8.982-8.982h62.877c5.389 0 8.982 3.593 8.982 8.982 0 5.389-3.593 8.982-8.982 8.982zM247.018 134.737h-44.912c-5.389 0-8.982-3.593-8.982-8.982 0-5.389 3.593-8.982 8.982-8.982h44.912c5.389 0 8.982 3.593 8.982 8.982 0 5.389-3.593 8.982-8.982 8.982zm-80.843 0h-62.877c-5.389 0-8.982-3.593-8.982-8.982 0-5.389 3.593-8.982 8.982-8.982h62.877c5.389 0 8.982 3.593 8.982 8.982.001 5.389-3.592 8.982-8.982 8.982zm80.843 44.912h-8.982c-5.389 0-8.982-3.593-8.982-8.982s3.593-8.982 8.982-8.982h8.982c5.389 0 8.982 3.593 8.982 8.982s-3.593 8.982-8.982 8.982zm-44.913 0h-35.93c-5.389 0-8.982-3.593-8.982-8.982s3.593-8.982 8.982-8.982h35.93c5.389 0 8.982 3.593 8.982 8.982s-3.592 8.982-8.982 8.982zm-71.859 0h-26.947c-5.389 0-8.982-3.593-8.982-8.982s3.593-8.982 8.982-8.982h26.947c5.389 0 8.982 3.593 8.982 8.982s-3.593 8.982-8.982 8.982zm116.772 44.912H220.07c-5.389 0-8.982-3.593-8.982-8.982s3.593-8.982 8.982-8.982h26.947c5.389 0 8.982 3.593 8.982 8.982s-3.592 8.982-8.981 8.982zm-62.878 0h-80.842c-5.389 0-8.982-3.593-8.982-8.982s3.593-8.982 8.982-8.982h80.842c5.389 0 8.982 3.593 8.982 8.982s-3.592 8.982-8.982 8.982z"/><path d="M229.053 368.281h-62.877c-5.389 0-8.982-3.593-8.982-8.982s3.593-8.982 8.982-8.982h62.877c5.389 0 8.982 3.593 8.982 8.982s-3.593 8.982-8.982 8.982zm-98.807 0h-8.982c-5.389 0-8.982-3.593-8.982-8.982s3.593-8.982 8.982-8.982h8.982c5.389 0 8.982 3.593 8.982 8.982s-3.593 8.982-8.982 8.982zm98.807 44.912h-26.947c-5.389 0-8.982-3.593-8.982-8.982 0-5.389 3.593-8.982 8.982-8.982h26.947c5.389 0 8.982 3.593 8.982 8.982 0 5.389-3.593 8.982-8.982 8.982zm-62.878 0h-44.912c-5.389 0-8.982-3.593-8.982-8.982 0-5.389 3.593-8.982 8.982-8.982h44.912c5.389 0 8.982 3.593 8.982 8.982.001 5.389-3.592 8.982-8.982 8.982z"/></svg>