<svg xmlns="http://www.w3.org/2000/svg" viewBox="0 0 512 512"><path d="M438.969 111.915c32.655 41.405 49.912 91.236 49.912 144.085 0 128.41-104.471 232.882-232.882 232.882S23.118 384.41 23.118 256 127.59 23.118 256 23.118c52.825 0 102.622 17.246 144.015 49.855a11.54 11.54 0 0014.599-.243l24.598 24.586c-3.479 4.115-3.699 10.219-.243 14.599zM459.799 256c0-112.378-91.421-203.799-203.799-203.799S52.201 143.622 52.201 256 143.622 459.799 256 459.799 459.799 368.378 459.799 256z" fill="#f27258"/><path d="M256 75.319c99.628 0 180.681 81.053 180.681 180.681S355.628 436.681 256 436.681 75.319 355.628 75.319 256 156.372 75.319 256 75.319zM418.452 256c0-6.381-5.178-11.559-11.559-11.559h-14.31c-6.392 0-11.559 5.178-11.559 11.559s5.167 11.559 11.559 11.559h14.31c6.38 0 11.559-5.178 11.559-11.559zm-25.997-65.436c5.525-3.19 7.421-10.265 4.231-15.79-3.19-5.525-10.253-7.421-15.79-4.231l-12.391 7.155c-5.537 3.19-7.421 10.265-4.231 15.79 2.138 3.71 6.022 5.78 10.022 5.78 1.953 0 3.942-.497 5.768-1.549l12.391-7.155zm4.231 146.662c3.19-5.525 1.295-12.599-4.231-15.79l-12.391-7.155c-5.537-3.19-12.599-1.295-15.79 4.231s-1.306 12.599 4.231 15.79l12.391 7.155a11.466 11.466 0 005.768 1.549c4 0 7.884-2.07 10.022-5.78zm-55.229-206.122c3.19-5.525 1.295-12.599-4.231-15.79s-12.599-1.295-15.79 4.231l-7.155 12.391c-3.19 5.537-1.295 12.599 4.231 15.79a11.466 11.466 0 005.768 1.549c3.999 0 7.883-2.069 10.022-5.78l7.155-12.391zm-4.231 265.582c5.525-3.19 7.421-10.264 4.231-15.79l-7.155-12.391c-3.19-5.537-10.253-7.421-15.79-4.231-5.525 3.19-7.421 10.253-4.231 15.79l7.155 12.391c2.138 3.71 6.022 5.78 10.022 5.78 1.965 0 3.942-.497 5.768-1.549zm-13.027-71.921c4.288-4.288 4.288-11.235 0-15.524l-43.405-43.416a26.511 26.511 0 001.78-9.559v-67.702c0-14.657-11.917-26.574-26.574-26.574-14.657 0-26.574 11.917-26.574 26.574v41.127h-37.001c-14.657 0-26.586 11.929-26.586 26.586 0 14.657 11.929 26.586 26.586 26.586H256c.173 0 .335-.012.509-.023a26.362 26.362 0 008.623-1.607l43.543 43.532a10.903 10.903 0 007.756 3.225c2.821 0 5.629-1.075 7.768-3.225zm-56.64 82.128v-14.31c0-6.392-5.178-11.559-11.559-11.559s-11.559 5.167-11.559 11.559v14.31c0 6.381 5.178 11.559 11.559 11.559s11.559-5.179 11.559-11.559zm0-287.476v-14.31c0-6.381-5.178-11.559-11.559-11.559s-11.559 5.178-11.559 11.559v14.31c0 6.392 5.178 11.559 11.559 11.559s11.559-5.166 11.559-11.559zm-74.071 28.309c5.525-3.19 7.421-10.253 4.231-15.79l-7.155-12.391c-3.19-5.525-10.253-7.421-15.79-4.231-5.525 3.19-7.421 10.265-4.231 15.79l7.155 12.391c2.138 3.71 6.022 5.78 10.022 5.78 1.965 0 3.953-.497 5.768-1.549zm4.231 232.338c3.19-5.537 1.295-12.599-4.231-15.79s-12.599-1.306-15.79 4.231l-7.155 12.391c-3.19 5.525-1.295 12.599 4.231 15.79a11.495 11.495 0 005.768 1.549c3.999 0 7.883-2.069 10.022-5.78l7.155-12.391zm-49.993-186.576c3.19-5.525 1.306-12.599-4.231-15.79l-12.391-7.155c-5.525-3.19-12.599-1.295-15.79 4.231-3.19 5.525-1.295 12.599 4.231 15.79l12.391 7.155a11.528 11.528 0 005.768 1.549c3.999 0 7.883-2.069 10.022-5.78zm-4.231 140.814c5.537-3.19 7.421-10.264 4.231-15.79-3.19-5.525-10.253-7.421-15.79-4.231l-12.391 7.155c-5.525 3.19-7.421 10.264-4.231 15.79 2.138 3.71 6.022 5.78 10.022 5.78 1.965 0 3.953-.497 5.768-1.549l12.391-7.155zM130.976 256c0-6.381-5.167-11.559-11.559-11.559h-14.31c-6.381 0-11.559 5.178-11.559 11.559s5.178 11.559 11.559 11.559h14.31c6.393 0 11.559-5.178 11.559-11.559z" fill="#ffdb6f"/><path d="M260.612 188.564v67.702c0 2.555-2.069 4.624-4.612 4.624s-4.612-2.069-4.612-4.624v-67.702c0-2.543 2.069-4.612 4.612-4.612s4.612 2.069 4.612 4.612zm-30.782 72.337h-37.405a4.63 4.63 0 01-4.624-4.624 4.63 4.63 0 014.624-4.624h37.001v4.612c0 1.584.138 3.133.404 4.636z" fill="#e4f5f4"/><g fill="#201f2e"><path d="M457.117 97.605c-3.953-5.017-11.224-5.872-16.229-1.919a11.167 11.167 0 00-1.676 1.63c-3.479 4.115-3.699 10.218-.243 14.599 32.655 41.405 49.912 91.236 49.912 144.085 0 128.41-104.471 232.882-232.882 232.882S23.118 384.41 23.118 256 127.59 23.118 256 23.118c52.825 0 102.622 17.246 144.015 49.855a11.54 11.54 0 0014.599-.243 11.167 11.167 0 001.63-1.676c3.953-5.017 3.098-12.287-1.919-16.229C368.817 18.957 314.062 0 256 0 187.616 0 123.336 26.632 74.984 74.984S0 187.616 0 256s26.632 132.664 74.984 181.016S187.616 512 256 512s132.664-26.632 181.016-74.984S512 324.384 512 256c0-58.096-18.98-112.875-54.883-158.395z"/><path d="M381.024 256c0 6.381 5.167 11.559 11.559 11.559h14.31c6.381 0 11.559-5.178 11.559-11.559s-5.178-11.559-11.559-11.559h-14.31c-6.393 0-11.559 5.178-11.559 11.559z"/><path d="M256 52.201C143.622 52.201 52.201 143.622 52.201 256S143.622 459.799 256 459.799 459.799 368.378 459.799 256 368.378 52.201 256 52.201zm0 384.48c-99.628 0-180.681-81.053-180.681-180.681S156.372 75.319 256 75.319 436.681 156.372 436.681 256 355.628 436.681 256 436.681z"/><path d="M368.505 177.698c-5.537 3.19-7.421 10.265-4.231 15.79 2.138 3.71 6.022 5.78 10.022 5.78 1.953 0 3.942-.497 5.768-1.549l12.391-7.155c5.525-3.19 7.421-10.265 4.231-15.79-3.19-5.525-10.253-7.421-15.79-4.231l-12.391 7.155zm23.95 143.738l-12.391-7.155c-5.537-3.19-12.599-1.295-15.79 4.231s-1.306 12.599 4.231 15.79l12.391 7.155a11.466 11.466 0 005.768 1.549c3.999 0 7.883-2.069 10.022-5.78 3.19-5.525 1.295-12.599-4.231-15.79zm-55.229-206.122c-5.525-3.19-12.599-1.295-15.79 4.231l-7.155 12.391c-3.19 5.537-1.295 12.599 4.231 15.79a11.466 11.466 0 005.768 1.549c3.999 0 7.883-2.069 10.022-5.78l7.155-12.391c3.19-5.526 1.294-12.6-4.231-15.79zm-2.924 253.191c-3.19-5.537-10.253-7.421-15.79-4.231-5.525 3.19-7.421 10.253-4.231 15.79l7.155 12.391c2.138 3.71 6.022 5.78 10.022 5.78 1.965 0 3.942-.497 5.768-1.549 5.525-3.19 7.421-10.264 4.231-15.79l-7.155-12.391zm-10.103-43.74c4.288-4.288 4.288-11.235 0-15.524l-43.405-43.416a26.511 26.511 0 001.78-9.559v-67.702c0-14.657-11.917-26.574-26.574-26.574-14.657 0-26.574 11.917-26.574 26.574v41.127h-37.001c-14.657 0-26.586 11.929-26.586 26.586 0 14.657 11.929 26.586 26.586 26.586H256c.173 0 .335-.012.509-.023a26.362 26.362 0 008.623-1.607l43.543 43.532a10.903 10.903 0 007.756 3.225c2.821 0 5.629-1.075 7.768-3.225zm-131.774-63.864a4.63 4.63 0 01-4.624-4.624 4.63 4.63 0 014.624-4.624h37.001v4.612c0 1.584.139 3.133.405 4.635h-37.406zm68.187-4.635c0 2.555-2.069 4.624-4.612 4.624s-4.612-2.069-4.612-4.624v-67.702c0-2.543 2.069-4.612 4.612-4.612s4.612 2.069 4.612 4.612v67.702zM256 381.024c-6.381 0-11.559 5.167-11.559 11.559v14.31c0 6.381 5.178 11.559 11.559 11.559s11.559-5.178 11.559-11.559v-14.31c0-6.393-5.178-11.559-11.559-11.559zm0-250.048c6.381 0 11.559-5.167 11.559-11.559v-14.31c0-6.381-5.178-11.559-11.559-11.559s-11.559 5.178-11.559 11.559v14.31c0 6.393 5.178 11.559 11.559 11.559zm-78.302 12.519c2.138 3.71 6.022 5.78 10.022 5.78 1.965 0 3.953-.497 5.768-1.549 5.525-3.19 7.421-10.253 4.231-15.79l-7.155-12.391c-3.19-5.525-10.253-7.421-15.79-4.231-5.525 3.19-7.421 10.265-4.231 15.79l7.155 12.391zm15.79 220.779c-5.525-3.19-12.599-1.306-15.79 4.231l-7.155 12.391c-3.19 5.525-1.295 12.599 4.231 15.79a11.495 11.495 0 005.768 1.549c3.999 0 7.883-2.069 10.022-5.78l7.155-12.391c3.19-5.537 1.295-12.599-4.231-15.79zm-49.993-186.576l-12.391-7.155c-5.525-3.19-12.599-1.295-15.79 4.231-3.19 5.525-1.295 12.599 4.231 15.79l12.391 7.155a11.528 11.528 0 005.768 1.549c3.999 0 7.883-2.069 10.022-5.78 3.19-5.525 1.306-12.599-4.231-15.79zm-11.559 136.583l-12.391 7.155c-5.525 3.19-7.421 10.264-4.231 15.79 2.138 3.71 6.022 5.78 10.022 5.78 1.965 0 3.953-.497 5.768-1.549l12.391-7.155c5.537-3.19 7.421-10.264 4.231-15.79-3.191-5.526-10.253-7.421-15.79-4.231zm-.96-58.281c0-6.381-5.167-11.559-11.559-11.559h-14.31c-6.381 0-11.559 5.178-11.559 11.559s5.178 11.559 11.559 11.559h14.31c6.393 0 11.559-5.178 11.559-11.559z"/></g></svg>