<svg xmlns="http://www.w3.org/2000/svg" viewBox="0 0 512 512"><path d="M140.8 383.838c-70.579 0-128-57.421-128-128 0-67.311 52.224-122.65 118.281-127.633C142.925 68.89 194.782 25.438 256 25.438S369.075 68.89 380.919 128.205c66.057 4.983 118.281 60.322 118.281 127.633 0 70.579-57.421 128-128 128H140.8z" fill="#6fb0b6"/><path d="M166.4 486.562v-76.8h179.2v76.8H166.4zm0-307.191h179.2v51.2H166.4z" fill="#a7b0c0"/><path fill="#c5dfe2" d="M166.4 230.571h179.2v179.2H166.4z"/><g fill="#573a32"><path d="M230.4 460.962h51.2c7.074 0 12.8-5.726 12.8-12.8s-5.726-12.8-12.8-12.8h-51.2c-7.074 0-12.8 5.726-12.8 12.8s5.726 12.8 12.8 12.8z"/><path d="M391.305 116.471C374.98 55.987 320.162 12.638 256 12.638S137.028 55.987 120.695 116.471C52.54 126.251 0 185.02 0 255.838c0 77.636 63.164 140.8 140.8 140.8h12.8v77.124c0 14.14 11.46 25.6 25.6 25.6h153.6c14.14 0 25.6-11.46 25.6-25.6v-77.124h12.8c77.636 0 140.8-63.164 140.8-140.8 0-70.818-52.54-129.587-120.695-139.367zM332.8 473.762H179.2v-51.2h153.6v51.2zm0-76.8H179.2v-153.6h153.6v153.6zm0-179.2H179.2v-25.6h153.6v25.6zm38.4 153.276h-12.8V192.162c0-14.14-11.46-25.6-25.6-25.6H179.2c-14.14 0-25.6 11.46-25.6 25.6v178.876h-12.8c-63.625 0-115.2-51.575-115.2-115.2s51.575-115.2 115.2-115.2c.435 0 .845.119 1.28.128C148.463 83.183 196.719 38.238 256 38.238s107.537 44.945 113.92 102.528c.435-.009.845-.128 1.28-.128 63.625 0 115.2 51.575 115.2 115.2s-51.575 115.2-115.2 115.2z"/></g></svg>