<svg xmlns="http://www.w3.org/2000/svg" viewBox="0 0 512 512"><path d="M264.533 435.2c-5.12 0-8.533-3.413-8.533-8.533v-34.133c0-5.12 3.413-8.533 8.533-8.533 5.12 0 8.533 3.413 8.533 8.533v34.133c.001 5.12-3.413 8.533-8.533 8.533zm0-68.267c-5.12 0-8.533-3.413-8.533-8.533v-25.6c0-5.12 3.413-8.533 8.533-8.533 5.12 0 8.533 3.413 8.533 8.533v25.6c.001 5.12-3.413 8.533-8.533 8.533zm0-59.733c-5.12 0-8.533-3.413-8.533-8.533v-25.6c0-5.12 3.413-8.533 8.533-8.533 5.12 0 8.533 3.413 8.533 8.533v25.6c.001 5.12-3.413 8.533-8.533 8.533z" fill="#ffdd09"/><g fill="#54c9fd"><path d="M294.4 349.867h98.987c46.08 0 84.48-42.667 84.48-93.867 0-46.08-29.867-85.333-69.12-93.867C407.893 87.893 354.133 25.6 287.573 25.6c-42.667 0-82.773 25.6-104.107 62.293-9.386-6.826-21.333-11.093-34.133-11.093-34.133 0-61.44 30.72-61.44 68.267v8.534c-30.72 16.213-53.76 55.467-53.76 95.573 0 55.467 40.96 100.693 90.453 100.693H217.6"/><path d="M182.613 87.893C198.827 60.587 225.28 39.253 256 29.867c-32.427 8.533-60.587 28.16-79.36 54.613 2.56.853 4.267 2.56 5.973 3.413"/></g><path d="M426.667 162.133c-.854-74.24-61.44-136.533-135.68-136.533h-2.56c66.56.853 119.467 63.147 120.32 136.533 39.253 8.533 69.12 47.787 69.12 93.867 0 52.053-38.4 93.867-84.48 93.867H409.6c52.053 0 93.867-42.667 93.867-93.867 0-46.08-33.28-85.333-76.8-93.867" fill="#33a9f8"/><path d="M34.133 249.173c0-40.107 23.04-78.507 53.76-95.573v-8.534c0-34.987 23.893-64 54.613-67.413h-5.973c-37.547 0-68.267 30.72-68.267 68.267v8.534C34.133 170.667 8.533 209.92 8.533 250.027c0 54.613 45.227 99.84 100.693 99.84h15.36c-49.493 0-90.453-45.227-90.453-100.694" fill="#fff"/><g fill="#ffdd09"><path d="M230.4 469.333h-34.133c-5.12 0-8.533-3.413-8.533-8.533s3.413-8.533 8.533-8.533H230.4c5.12 0 8.533 3.413 8.533 8.533s-3.413 8.533-8.533 8.533zm-68.267 0h-25.6c-5.12 0-8.533-3.413-8.533-8.533s3.413-8.533 8.533-8.533h25.6c5.12 0 8.533 3.413 8.533 8.533s-3.413 8.533-8.533 8.533zm-59.733 0H68.267c-5.12 0-8.533-3.413-8.533-8.533s3.413-8.533 8.533-8.533H102.4c5.12 0 8.533 3.413 8.533 8.533s-3.413 8.533-8.533 8.533zm-59.733 0h-25.6c-5.12 0-8.533-3.413-8.533-8.533s3.413-8.533 8.533-8.533h25.6c5.12 0 8.533 3.413 8.533 8.533s-3.413 8.533-8.533 8.533zm460.8 0h-34.133c-5.12 0-8.533-3.413-8.533-8.533s3.413-8.533 8.533-8.533h34.133c5.12 0 8.533 3.413 8.533 8.533s-3.413 8.533-8.533 8.533zm-68.267 0h-25.6c-5.12 0-8.533-3.413-8.533-8.533s3.413-8.533 8.533-8.533h25.6c5.12 0 8.533 3.413 8.533 8.533s-3.413 8.533-8.533 8.533zm-59.733 0h-34.133c-5.12 0-8.533-3.413-8.533-8.533s3.413-8.533 8.533-8.533h34.133c5.12 0 8.533 3.413 8.533 8.533s-3.413 8.533-8.533 8.533zm-59.734 0h-17.067c-5.12 0-8.533-3.413-8.533-8.533s3.413-8.533 8.533-8.533h17.067c5.12 0 8.533 3.413 8.533 8.533s-3.413 8.533-8.533 8.533z"/><path d="M290.133 452.267c0 18.773-15.36 34.133-34.133 34.133s-34.133-15.36-34.133-34.133 15.36-34.133 34.133-34.133 34.133 15.359 34.133 34.133m0-221.867c0 18.773-15.36 34.133-34.133 34.133s-34.133-15.36-34.133-34.133 15.36-34.133 34.133-34.133 34.133 15.36 34.133 34.133"/></g><path d="M256 494.933c-23.893 0-42.667-18.773-42.667-42.667 0-23.893 18.773-42.667 42.667-42.667s42.667 18.773 42.667 42.667c0 23.894-18.774 42.667-42.667 42.667zm0-68.266c-14.507 0-25.6 11.093-25.6 25.6 0 14.507 11.093 25.6 25.6 25.6 14.507 0 25.6-11.093 25.6-25.6 0-14.507-11.093-25.6-25.6-25.6zm0-153.6c-23.893 0-42.667-18.773-42.667-42.667s18.773-42.667 42.667-42.667 42.667 18.773 42.667 42.667-18.774 42.667-42.667 42.667zm0-68.267c-14.507 0-25.6 11.093-25.6 25.6S241.493 256 256 256c14.507 0 25.6-11.093 25.6-25.6s-11.093-25.6-25.6-25.6z"/><path d="M221.867 460.8h-34.133c-5.12 0-8.533-3.413-8.533-8.533s3.413-8.533 8.533-8.533h34.133c5.12 0 8.533 3.413 8.533 8.533s-3.413 8.533-8.533 8.533zm-68.267 0H128c-5.12 0-8.533-3.413-8.533-8.533s3.413-8.533 8.533-8.533h25.6c5.12 0 8.533 3.413 8.533 8.533s-3.413 8.533-8.533 8.533zm-59.733 0H59.733c-5.12 0-8.533-3.413-8.533-8.533s3.413-8.533 8.533-8.533h34.133c5.12 0 8.533 3.413 8.533 8.533s-3.412 8.533-8.532 8.533zm-59.734 0h-25.6c-5.12 0-8.533-3.413-8.533-8.533s3.413-8.533 8.533-8.533h25.6c5.12 0 8.533 3.413 8.533 8.533s-3.413 8.533-8.533 8.533zm469.334 0h-34.133c-5.12 0-8.533-3.413-8.533-8.533s3.413-8.533 8.533-8.533h34.133c5.12 0 8.533 3.413 8.533 8.533s-3.413 8.533-8.533 8.533zm-68.267 0h-25.6c-5.12 0-8.533-3.413-8.533-8.533s3.413-8.533 8.533-8.533h25.6c5.12 0 8.533 3.413 8.533 8.533s-3.413 8.533-8.533 8.533zm-59.733 0h-34.133c-5.12 0-8.533-3.413-8.533-8.533s3.413-8.533 8.533-8.533h34.133c5.12 0 8.533 3.413 8.533 8.533s-3.413 8.533-8.533 8.533zm-59.734 0h-25.6c-5.12 0-8.533-3.413-8.533-8.533s3.413-8.533 8.533-8.533h25.6c5.12 0 8.533 3.413 8.533 8.533s-3.413 8.533-8.533 8.533zM256 426.667c-5.12 0-8.533-3.413-8.533-8.533V384c0-5.12 3.413-8.533 8.533-8.533s8.533 3.413 8.533 8.533v34.133c0 5.12-3.413 8.534-8.533 8.534zm0-68.267c-5.12 0-8.533-3.413-8.533-8.533v-25.6c0-5.12 3.413-8.533 8.533-8.533s8.533 3.413 8.533 8.533v25.6c0 5.12-3.413 8.533-8.533 8.533zm0-59.733c-5.12 0-8.533-3.413-8.533-8.533v-25.6c0-5.12 3.413-8.533 8.533-8.533s8.533 3.413 8.533 8.533v25.6c0 5.119-3.413 8.533-8.533 8.533z"/><path d="M256 435.2c-5.12 0-8.533-3.413-8.533-8.533v-34.133c0-5.12 3.413-8.533 8.533-8.533s8.533 3.413 8.533 8.533v34.133c0 5.12-3.413 8.533-8.533 8.533zm0-68.267c-5.12 0-8.533-3.413-8.533-8.533v-25.6c0-5.12 3.413-8.533 8.533-8.533s8.533 3.413 8.533 8.533v25.6c0 5.12-3.413 8.533-8.533 8.533zm0-59.733c-5.12 0-8.533-3.413-8.533-8.533v-25.6c0-5.12 3.413-8.533 8.533-8.533s8.533 3.413 8.533 8.533v25.6c0 5.12-3.413 8.533-8.533 8.533zm128-136.533c-4.267 0-7.68-3.413-8.533-6.827-.853-4.267 2.56-9.387 6.827-9.387 22.187-3.413 44.373 0 45.227 0 4.267.853 7.68 5.12 6.827 9.387s-5.12 7.68-9.387 6.827c0 0-20.48-2.56-40.107 0H384zM204.8 153.6c-5.12 0-8.533-3.413-8.533-8.533 0-33.28-26.453-59.733-59.733-59.733S76.8 111.787 76.8 145.067c0 5.12-3.413 8.533-8.533 8.533s-8.533-3.413-8.533-8.533c0-42.667 34.133-76.8 76.8-76.8s76.8 34.133 76.8 76.8c-.001 5.12-3.414 8.533-8.534 8.533z"/><path d="M409.6 358.4H298.667c-5.12 0-8.533-3.413-8.533-8.533 0-5.12 3.413-8.533 8.533-8.533H409.6c46.933 0 85.333-38.4 85.333-85.333 0-40.96-29.867-77.653-69.973-85.333l-6.827-1.707v-6.827c-.853-70.827-58.027-128-127.147-128-42.667 0-85.333 23.04-109.227 58.88l-5.12 6.827-6.827-5.12c-10.24-5.973-21.333-9.387-33.28-9.387-33.28 0-59.733 26.453-59.733 59.733v14.507l-5.12 2.56c-31.573 14.507-54.613 51.2-54.613 87.04 0 50.347 41.813 92.16 92.16 92.16h104.107c5.12 0 8.533 3.413 8.533 8.533 0 5.12-3.413 8.533-8.533 8.533H109.227C49.493 358.4 0 308.907 0 249.173c0-40.96 24.747-81.067 59.733-100.693v-3.413c0-42.667 34.133-76.8 76.8-76.8 12.8 0 24.747 2.56 34.987 8.533 28.16-36.693 72.533-59.733 118.613-59.733 76.8 0 139.947 61.44 145.067 138.24C479.573 167.253 512 209.067 512 256c0 56.32-46.08 102.4-102.4 102.4z"/></svg>