<svg xmlns="http://www.w3.org/2000/svg" viewBox="0 0 512 512"><path d="M256.001 365.21c-2.713 0-5.424-.75-7.812-2.252l-104.887-65.932c-30.992-19.483-49.496-52.97-49.496-89.576V39.563C93.806 17.748 111.554 0 133.367 0h245.267c21.814 0 39.561 17.748 39.561 39.563v88.741c0 8.107-6.573 14.678-14.678 14.678s-14.678-6.572-14.678-14.678V39.563c0-5.626-4.578-10.206-10.204-10.206H133.367c-5.626 0-10.204 4.578-10.204 10.206V207.45c0 26.45 13.369 50.645 35.762 64.723l97.076 61.022 97.076-61.022c22.393-14.077 35.762-38.272 35.762-64.723 0-8.107 6.573-14.678 14.678-14.678s14.678 6.572 14.678 14.678c0 36.606-18.502 70.094-49.496 89.576l-104.887 65.932a14.658 14.658 0 01-7.811 2.252z" fill="#2d527c"/><path d="M221.401 336.03l-43.357 38.281a54.762 54.762 0 00-18.518 41.054v81.957h192.95v-81.957a54.762 54.762 0 00-18.518-41.054l-43.357-38.281h-69.2z" fill="#cee8fa"/><path d="M352.474 512H159.526c-8.105 0-14.678-6.572-14.678-14.678v-81.955a69.474 69.474 0 0123.482-52.058l43.354-38.28a14.685 14.685 0 019.716-3.675h69.201c3.579 0 7.032 1.308 9.716 3.675l43.356 38.281a69.473 69.473 0 0123.481 52.057v81.955c-.001 8.105-6.573 14.678-14.68 14.678zm-178.27-29.357h163.592v-67.277a40.106 40.106 0 00-13.554-30.051l-39.194-34.606h-58.094l-39.193 34.606a40.104 40.104 0 00-13.555 30.051v67.277h-.002z" fill="#2d527c"/><path d="M221.401 336.03l-43.357 38.281a54.762 54.762 0 00-18.518 41.054v81.957h192.95v-81.957a54.762 54.762 0 00-18.518-41.054l-43.357-38.281h-69.2z" fill="#cee8fa"/><g fill="#2d527c"><path d="M352.474 512H159.526c-8.105 0-14.678-6.572-14.678-14.678v-81.955a69.474 69.474 0 0123.482-52.058l43.354-38.28a14.685 14.685 0 019.716-3.675h69.201c3.579 0 7.032 1.308 9.716 3.675l43.356 38.281a69.473 69.473 0 0123.481 52.057v81.955c-.001 8.105-6.573 14.678-14.68 14.678zm-178.27-29.357h163.592v-67.277a40.106 40.106 0 00-13.554-30.051l-39.194-34.606h-58.094l-39.193 34.606a40.104 40.104 0 00-13.555 30.051v67.277h-.002zm70.136-322.177l-6.504 4.037c-2.017 1.346-4.035 1.794-5.604 1.794-6.503 0-10.987-6.95-10.987-13.902 0-4.709 2.018-9.193 6.503-11.884l29.598-17.938c1.794-1.121 4.037-1.569 6.503-1.569 7.176 0 15.471 4.26 15.471 10.987v142.605c0 7.175-8.744 10.762-17.488 10.762-8.745 0-17.489-3.587-17.489-10.762v-114.13h-.003z"/><path d="M403.125 512h-294.25c-8.105 0-14.678-6.572-14.678-14.678 0-8.107 6.573-14.678 14.678-14.678h294.25c8.105 0 14.678 6.572 14.678 14.678.001 8.106-6.571 14.678-14.678 14.678zm69.398-329.383a14.65 14.65 0 01-11.511-5.559c-5.038-6.353-3.972-15.584 2.379-20.622 6.724-5.333 10.58-13.303 10.58-21.869 0-15.379-12.51-27.889-27.889-27.889s-27.889 12.51-27.889 27.889c0 8.107-6.573 14.678-14.678 14.678s-14.678-6.572-14.678-14.678c0-31.566 25.68-57.246 57.246-57.246s57.246 25.68 57.246 57.246c0 17.582-7.909 33.936-21.695 44.87a14.598 14.598 0 01-9.111 3.18zm-433.046 0a14.617 14.617 0 01-9.111-3.179c-13.787-10.934-21.695-27.289-21.695-44.87 0-31.566 25.68-57.246 57.246-57.246s57.246 25.68 57.246 57.246c0 8.107-6.573 14.678-14.678 14.678s-14.678-6.572-14.678-14.678c0-15.379-12.51-27.889-27.889-27.889s-27.889 12.51-27.889 27.889c0 8.566 3.856 16.538 10.58 21.869 6.351 5.038 7.417 14.269 2.379 20.622a14.656 14.656 0 01-11.511 5.558z"/></g><path d="M403.517 76.924V39.561c0-13.743-11.141-24.883-24.884-24.883H133.367c-13.743 0-24.884 11.141-24.884 24.883v37.361h295.034v.002z" fill="#cee8fa"/><path d="M403.517 91.602H108.484c-8.105 0-14.678-6.572-14.678-14.678V39.563C93.806 17.748 111.554 0 133.367 0h245.267c21.814 0 39.561 17.748 39.561 39.563v37.361c.001 8.106-6.572 14.678-14.678 14.678zM123.163 62.245h265.676V39.563c0-5.626-4.578-10.206-10.204-10.206H133.367c-5.626 0-10.204 4.578-10.204 10.206v22.682z" fill="#2d527c"/></svg>