<svg xmlns="http://www.w3.org/2000/svg" viewBox="0 0 512 512"><path d="M477.867 499.2H341.333c-13.653 0-25.6-11.093-25.6-25.6V192c0-13.653 11.093-25.6 25.6-25.6h136.533c13.653 0 25.6 11.093 25.6 25.6v281.6c.001 14.507-11.093 25.6-25.599 25.6" fill="#fd9808"/><path d="M452.267 499.2H341.333c-13.653 0-25.6-11.093-25.6-25.6V192c0-13.653 11.093-25.6 25.6-25.6h110.933c13.653 0 25.6 11.093 25.6 25.6v281.6c.001 14.507-11.093 25.6-25.599 25.6M315.733 217.6H8.533v23.893c0 15.36 11.947 27.307 27.307 27.307h279.893v-51.2z" fill="#ffdd09"/><path d="M315.733 192c0-13.653 11.093-25.6 25.6-25.6v-128c0-13.653-11.947-25.6-26.453-25.6H52.053C37.547 12.8 25.6 24.747 25.6 39.253V217.6h290.133V192z" fill="#fd9808"/><path fill="#1cd759" d="M366.933 388.267h85.334v-59.734h-85.334z"/><path fill="#ffdd09" d="M59.733 217.6H307.2V46.933H59.733z"/><path fill="#1cd759" d="M145.067 183.467H230.4v-59.734h-85.333z"/><path d="M477.867 507.733H341.333c-18.773 0-34.133-15.36-34.133-34.133V192c0-18.773 15.36-34.133 34.133-34.133h136.533C496.64 157.867 512 173.227 512 192v281.6c0 18.773-15.36 34.133-34.133 34.133zm-136.534-332.8c-9.387 0-17.067 7.68-17.067 17.067v281.6c0 9.387 7.68 17.067 17.067 17.067h136.533c9.387 0 17.067-7.68 17.067-17.067V192c0-9.387-7.68-17.067-17.067-17.067H341.333z"/><path d="M512 439.467H307.2V226.133H512v213.334zM324.267 422.4h170.667V243.2H324.267v179.2zm102.4-213.333h-34.133c-5.12 0-8.533-3.413-8.533-8.533 0-5.12 3.413-8.533 8.533-8.533h34.133c5.12 0 8.533 3.413 8.533 8.533 0 5.119-3.413 8.533-8.533 8.533zm0 264.533h-34.133c-5.12 0-8.533-3.413-8.533-8.533 0-5.12 3.413-8.533 8.533-8.533h34.133c5.12 0 8.533 3.413 8.533 8.533 0 5.12-3.413 8.533-8.533 8.533z"/><path d="M307.2 311.467c-5.12 0-8.533-3.413-8.533-8.533V294.4c0-5.12 3.413-8.533 8.533-8.533s8.533 3.413 8.533 8.533v8.533c0 5.12-3.413 8.534-8.533 8.534zm0 34.133c-5.12 0-8.533-3.413-8.533-8.533v-8.533c0-5.12 3.413-8.533 8.533-8.533s8.533 3.413 8.533 8.533v8.533c0 5.12-3.413 8.533-8.533 8.533zm145.067 51.2h-85.333c-5.12 0-8.533-3.413-8.533-8.533v-59.733c0-5.12 3.413-8.533 8.533-8.533h85.333c5.12 0 8.533 3.413 8.533 8.533v59.733c0 5.12-3.413 8.533-8.533 8.533zm-76.8-17.067h68.267v-42.667h-68.267v42.667z"/><path d="M435.2 337.067H384c-5.12 0-8.533-3.413-8.533-8.533v-25.6c0-18.773 15.36-34.133 34.133-34.133 18.773 0 34.133 15.36 34.133 34.133v25.6c0 5.119-3.413 8.533-8.533 8.533zM392.533 320h34.133v-17.067c0-9.387-7.68-17.067-17.067-17.067s-17.067 7.68-17.067 17.067V320zM230.4 192h-85.333c-5.12 0-8.533-3.413-8.533-8.533v-59.733c0-5.12 3.413-8.533 8.533-8.533H230.4c5.12 0 8.533 3.413 8.533 8.533v59.733c0 5.12-3.413 8.533-8.533 8.533zm-76.8-17.067h68.267v-42.667H153.6v42.667z"/><path d="M213.333 132.267h-51.2c-5.12 0-8.533-3.413-8.533-8.533v-17.067c0-18.773 15.36-34.133 34.133-34.133s34.133 15.36 34.133 34.133v17.067c.001 5.119-3.413 8.533-8.533 8.533zM170.667 115.2H204.8v-8.533c0-9.387-7.68-17.067-17.067-17.067s-17.067 7.68-17.067 17.067v8.533z"/><path d="M307.2 226.133H59.733c-5.12 0-8.533-3.413-8.533-8.533V46.933c0-5.12 3.413-8.533 8.533-8.533H307.2c5.12 0 8.533 3.413 8.533 8.533V217.6c0 5.12-3.413 8.533-8.533 8.533zM68.267 209.067h230.4v-153.6h-230.4v153.6z"/><path d="M324.267 226.133h-307.2V39.253c0-19.627 15.36-34.987 34.987-34.987H314.88c19.627 0 34.987 15.36 34.987 34.987v133.12l-11.947 2.56c-9.387 0-13.653 8.533-13.653 17.92v33.28zM34.133 209.067H307.2V192c0-16.213 11.093-29.013 25.6-32.427V39.253c0-10.24-7.68-17.92-17.92-17.92H52.053c-10.24 0-17.92 7.68-17.92 17.92v169.814z"/><path d="M315.733 277.333H35.84C16.213 277.333 0 261.12 0 241.493V217.6c0-5.12 3.413-8.533 8.533-8.533h307.2c5.12 0 8.533 3.413 8.533 8.533v51.2c.001 5.12-3.413 8.533-8.533 8.533zm-298.666-51.2v15.36c0 10.24 8.533 18.773 18.773 18.773H307.2v-34.133H17.067zM460.8 140.8c-5.12 0-8.533-3.413-8.533-8.533V46.933c0-5.12 3.413-8.533 8.533-8.533s8.533 3.413 8.533 8.533v85.333c0 5.121-3.413 8.534-8.533 8.534z"/><path d="M460.8 140.8c-2.56 0-4.267-.853-5.973-2.56-3.413-3.413-3.413-8.533 0-11.947l25.6-25.6c3.413-3.413 8.533-3.413 11.947 0 3.413 3.413 3.413 8.533 0 11.947l-25.6 25.6c-1.707 1.707-3.414 2.56-5.974 2.56z"/><path d="M460.8 140.8c-2.56 0-4.267-.853-5.973-2.56l-25.6-25.6c-3.413-3.413-3.413-8.533 0-11.947 3.413-3.413 8.533-3.413 11.947 0l25.6 25.6c3.413 3.413 3.413 8.533 0 11.947-1.707 1.707-3.414 2.56-5.974 2.56zm0-85.333h-85.333c-5.12 0-8.533-3.413-8.533-8.533s3.413-8.533 8.533-8.533H460.8c5.12 0 8.533 3.413 8.533 8.533s-3.413 8.533-8.533 8.533z"/><path d="M401.067 81.067c-2.56 0-4.267-.853-5.973-2.56l-25.6-25.6c-3.413-3.413-3.413-8.533 0-11.947s8.533-3.413 11.947 0l25.6 25.6c3.413 3.413 3.413 8.533 0 11.947-1.708 1.706-3.414 2.56-5.974 2.56z"/><path d="M375.467 55.467c-2.56 0-4.267-.853-5.973-2.56-3.413-3.413-3.413-8.533 0-11.947l25.6-25.6c3.413-3.413 8.533-3.413 11.947 0 3.413 3.413 3.413 8.533 0 11.947l-25.6 25.6c-1.708 1.706-3.414 2.56-5.974 2.56zm-256 375.466c-5.12 0-8.533-3.413-8.533-8.533v-85.333c0-5.12 3.413-8.533 8.533-8.533s8.533 3.413 8.533 8.533V422.4c0 5.12-3.413 8.533-8.533 8.533z"/><path d="M93.867 371.2c-2.56 0-4.267-.853-5.973-2.56-3.413-3.413-3.413-8.533 0-11.947l25.6-25.6c3.413-3.413 8.533-3.413 11.947 0 3.413 3.413 3.413 8.533 0 11.947l-25.6 25.6c-1.708 1.707-3.414 2.56-5.974 2.56z"/><path d="M145.067 371.2c-2.56 0-4.267-.853-5.973-2.56l-25.6-25.6c-3.413-3.413-3.413-8.533 0-11.947 3.413-3.413 8.533-3.413 11.947 0l25.6 25.6c3.413 3.413 3.413 8.533 0 11.947-1.708 1.707-3.414 2.56-5.974 2.56zm59.733 59.733h-85.333c-5.12 0-8.533-3.413-8.533-8.533s3.413-8.533 8.533-8.533H204.8c5.12 0 8.533 3.413 8.533 8.533s-3.413 8.533-8.533 8.533z"/><path d="M204.8 430.933c-2.56 0-4.267-.853-5.973-2.56l-25.6-25.6c-3.413-3.413-3.413-8.533 0-11.947 3.413-3.413 8.533-3.413 11.947 0l25.6 25.6c3.413 3.413 3.413 8.533 0 11.947-1.707 1.707-3.414 2.56-5.974 2.56z"/><path d="M179.2 456.533c-2.56 0-4.267-.853-5.973-2.56-3.413-3.413-3.413-8.533 0-11.947l25.6-25.6c3.413-3.413 8.533-3.413 11.947 0 3.413 3.413 3.413 8.533 0 11.947l-25.6 25.6c-1.707 1.707-3.414 2.56-5.974 2.56z"/></svg>