<svg xmlns="http://www.w3.org/2000/svg" viewBox="0 0 503.98 503.98"><path d="M96.711 33.574c0-14.269-10.911-25.18-25.18-25.18s-25.18 10.911-25.18 25.18 10.911 25.18 25.18 25.18 25.18-10.911 25.18-25.18m83.935 0c0-14.269-10.911-25.18-25.18-25.18s-25.18 10.911-25.18 25.18 10.911 25.18 25.18 25.18c14.268 0 25.18-10.911 25.18-25.18m83.934 0c0-14.269-10.911-25.18-25.18-25.18s-25.18 10.911-25.18 25.18 10.911 25.18 25.18 25.18c14.268 0 25.18-10.911 25.18-25.18M96.711 117.508c0-14.269-10.911-25.18-25.18-25.18s-25.18 10.911-25.18 25.18 10.911 25.18 25.18 25.18 25.18-10.911 25.18-25.18m83.935 0c0-14.269-10.911-25.18-25.18-25.18s-25.18 10.911-25.18 25.18 10.911 25.18 25.18 25.18c14.268.001 25.18-10.911 25.18-25.18m83.934 0c0-14.269-10.911-25.18-25.18-25.18s-25.18 10.911-25.18 25.18 10.911 25.18 25.18 25.18c14.268.001 25.18-10.911 25.18-25.18M96.711 201.443c0-14.269-10.911-25.18-25.18-25.18s-25.18 10.911-25.18 25.18 10.911 25.18 25.18 25.18 25.18-10.912 25.18-25.18m83.935 0c0-14.269-10.911-25.18-25.18-25.18s-25.18 10.911-25.18 25.18 10.911 25.18 25.18 25.18c14.268 0 25.18-10.912 25.18-25.18m-24.341 276.983c1.679 9.233 3.357 17.626 5.875 25.18 45.325 0 90.649-.839 135.974 0 35.252 0 70.505-.839 105.757 0 11.751 0 24.341.839 36.092 0V360.918c0-15.948-12.59-33.574-28.538-33.574s-29.377 17.626-29.377 33.574v-33.574c0-15.948-11.751-33.574-28.538-33.574-15.948 0-30.216 17.626-30.216 33.574V293.77c0-15.948-12.59-33.574-28.538-33.574s-30.216 17.626-30.216 33.574v-83.934c0-15.948-12.59-33.574-28.538-33.574s-30.216 17.626-30.216 33.574v209.836c0-23.502-18.466-70.505-41.128-92.328-20.984-20.984-72.184-8.393-41.967 33.574 20.144 27.698 28.537 87.292 33.574 117.508" fill="#ffe100"/><path d="M156.305 480.105c1.679 8.393 3.357 15.948 5.875 22.662h25.18c-2.518-6.715-4.197-14.269-5.875-22.662-5.036-30.216-13.43-89.81-33.574-117.508-15.948-22.662-9.233-36.092 4.197-41.128-23.502-8.393-54.557 6.715-29.377 41.128 20.144 27.698 28.537 86.452 33.574 117.508" fill="#fff"/><path d="M415.662 360.918v142.688c8.393 0 16.787.839 25.18 0V360.918c0-15.948-12.59-33.574-28.538-33.574-4.197 0-9.233 1.679-12.59 3.357 9.233 6.715 15.948 18.466 15.948 30.217" fill="#ffa800"/><path d="M440.842 360.918v142.688h25.18V360.918c0-15.948-12.59-33.574-28.538-33.574-4.197 0-9.233 1.679-12.59 3.357 9.233 6.715 15.948 18.466 15.948 30.217" fill="#ffe100"/><path d="M314.941 461.639h-25.18c-5.036 0-8.393-3.357-8.393-8.393s3.357-8.393 8.393-8.393h25.18c5.036 0 8.393 3.357 8.393 8.393s-3.357 8.393-8.393 8.393zm8.393 33.574h-41.967c-5.036 0-8.393-3.357-8.393-8.393s3.357-8.393 8.393-8.393h41.967c5.036 0 8.393 3.357 8.393 8.393s-3.357 8.393-8.393 8.393z"/><path d="M155.465 486.82c-4.197 0-7.554-2.518-8.393-6.715-.839-3.357-1.679-7.554-1.679-11.751-5.036-31.895-12.59-78.898-29.377-102.4-20.984-28.538-6.715-44.485-1.679-48.682 15.108-12.59 41.128-10.911 56.236 4.197 10.072 10.072 19.305 24.341 26.859 40.289V209.836c0-20.144 16.787-41.967 38.61-41.967s36.931 21.823 36.931 41.967v50.361c5.875-5.036 13.43-8.393 21.823-8.393 21.823 0 36.931 21.823 36.931 41.967 5.875-5.036 13.43-8.393 21.823-8.393 21.823 0 36.931 21.823 36.931 41.967 5.875-5.036 13.43-8.393 21.823-8.393 21.823 0 36.931 21.823 36.931 41.967v117.508c0 5.036-3.357 8.393-8.393 8.393-4.197 0-8.393-3.357-8.393-8.393V360.918c0-11.751-8.393-25.18-20.144-25.18-10.911 0-21.823 12.59-21.823 25.18v33.574c0 5.036-3.357 8.393-8.393 8.393s-8.393-3.357-8.393-8.393v-67.148c0-11.751-8.393-25.18-20.144-25.18-10.911 0-21.823 12.59-21.823 25.18v50.361c0 5.036-3.357 8.393-8.393 8.393-5.036 0-8.393-3.357-8.393-8.393V293.77c0-11.751-8.393-25.18-20.144-25.18-10.911 0-21.823 12.59-21.823 25.18v75.541c0 5.036-3.357 8.393-8.393 8.393s-8.393-3.357-8.393-8.393V209.836c0-11.751-8.393-25.18-20.144-25.18-10.911 0-21.823 12.59-21.823 25.18v209.836c0 5.036-3.357 8.393-8.393 8.393s-8.393-3.357-8.393-8.393c0-20.984-18.466-66.308-38.61-86.452-9.233-9.233-26.02-9.233-33.574-3.357-7.554 6.715-.839 19.305 4.197 26.02 18.466 26.02 26.859 76.38 31.895 109.115.839 4.197 1.679 8.393 1.679 11.751.839 4.197-2.518 9.233-6.715 10.072l-.844-.001zM71.531 67.148c-18.466 0-33.574-15.108-33.574-33.574S53.065 0 71.531 0s33.574 15.108 33.574 33.574-15.109 33.574-33.574 33.574zm0-50.361c-9.233 0-16.787 7.554-16.787 16.787s7.554 16.787 16.787 16.787 16.787-7.554 16.787-16.787-7.554-16.787-16.787-16.787zm83.934 50.361c-18.466 0-33.574-15.108-33.574-33.574S137 0 155.465 0s33.574 15.108 33.574 33.574-15.108 33.574-33.574 33.574zm0-50.361c-9.233 0-16.787 7.554-16.787 16.787s7.554 16.787 16.787 16.787 16.787-7.554 16.787-16.787-7.554-16.787-16.787-16.787zM239.4 67.148c-18.466 0-33.574-15.108-33.574-33.574S220.934 0 239.4 0s33.574 15.108 33.574 33.574-15.109 33.574-33.574 33.574zm0-50.361c-9.233 0-16.787 7.554-16.787 16.787s7.554 16.787 16.787 16.787c9.233 0 16.787-7.554 16.787-16.787s-7.555-16.787-16.787-16.787zM71.531 151.082c-18.466 0-33.574-15.108-33.574-33.574s15.108-33.574 33.574-33.574 33.574 15.108 33.574 33.574-15.109 33.574-33.574 33.574zm0-50.361c-9.233 0-16.787 7.554-16.787 16.787s7.554 16.787 16.787 16.787 16.787-7.554 16.787-16.787-7.554-16.787-16.787-16.787zm83.934 50.361c-18.466 0-33.574-15.108-33.574-33.574S137 83.934 155.465 83.934s33.574 15.108 33.574 33.574-15.108 33.574-33.574 33.574zm0-50.361c-9.233 0-16.787 7.554-16.787 16.787s7.554 16.787 16.787 16.787 16.787-7.554 16.787-16.787-7.554-16.787-16.787-16.787zm83.935 50.361c-18.466 0-33.574-15.108-33.574-33.574s15.108-33.574 33.574-33.574 33.574 15.108 33.574 33.574-15.109 33.574-33.574 33.574zm0-50.361c-9.233 0-16.787 7.554-16.787 16.787s7.554 16.787 16.787 16.787c9.233 0 16.787-7.554 16.787-16.787s-7.555-16.787-16.787-16.787zM71.531 235.016c-18.466 0-33.574-15.108-33.574-33.574s15.108-33.574 33.574-33.574 33.574 15.108 33.574 33.574-15.109 33.574-33.574 33.574zm0-50.36c-9.233 0-16.787 7.554-16.787 16.787s7.554 16.787 16.787 16.787 16.787-7.554 16.787-16.787-7.554-16.787-16.787-16.787z"/><path d="M155.465 235.016c-18.466 0-33.574-15.108-33.574-33.574s15.108-33.574 33.574-33.574 33.574 15.108 33.574 33.574-15.108 33.574-33.574 33.574zm0-50.36c-9.233 0-16.787 7.554-16.787 16.787s7.554 16.787 16.787 16.787 16.787-7.554 16.787-16.787-7.554-16.787-16.787-16.787z"/></svg>