<svg xmlns="http://www.w3.org/2000/svg" viewBox="0 0 512 512"><path d="M456.533 298.667h-68.267v-76.8c0-18.773 15.36-34.133 34.133-34.133 18.773 0 34.133 15.36 34.133 34.133v76.8z" fill="#1cd759"/><path d="M456.533 237.227v61.44h-68.267v-61.44c-15.36 8.533-25.6 25.6-25.6 44.373v221.867h119.467V281.6c0-18.773-10.24-35.84-25.6-44.373" fill="#fd9808"/><path d="M439.467 298.667h-51.2v-61.44c-15.36 8.533-25.6 25.6-25.6 44.373v221.867h93.867v-204.8h-17.067z" fill="#ffdd09"/><path d="M277.333 503.467H64c-13.653 0-25.6-11.093-25.6-25.6V34.133c0-13.653 11.093-25.6 25.6-25.6h213.333c13.653 0 25.6 11.093 25.6 25.6v443.733c0 14.507-11.093 25.601-25.6 25.601" fill="#fd9808"/><path d="M251.733 503.467H64c-13.653 0-25.6-11.093-25.6-25.6V34.133c0-13.653 11.093-25.6 25.6-25.6h187.733c13.653 0 25.6 11.093 25.6 25.6v443.733c0 14.507-11.093 25.601-25.6 25.601" fill="#ffdd09"/><path d="M64 8.533h25.6c-14.507 0-25.6 11.093-25.6 25.6v443.733c0 13.653 11.093 25.6 25.6 25.6H64c-13.653 0-25.6-11.093-25.6-25.6V34.133c0-14.506 11.093-25.6 25.6-25.6" fill="#fff"/><path d="M277.333 512H64c-18.773 0-34.133-15.36-34.133-34.133V34.133C29.867 15.36 45.227 0 64 0h213.333c18.773 0 34.133 15.36 34.133 34.133v443.733C311.467 496.64 296.107 512 277.333 512zM64 17.067c-9.387 0-17.067 7.68-17.067 17.067v443.733c0 9.387 7.68 17.067 17.067 17.067h213.333c9.387 0 17.067-7.68 17.067-17.067V34.133c0-9.387-7.68-17.067-17.067-17.067H64z"/><path d="M311.467 435.2h-281.6v-384h281.6v384zM46.933 418.133H294.4V68.267H46.933v349.866zM209.067 42.667H166.4c-5.12 0-8.533-3.413-8.533-8.533S161.28 25.6 166.4 25.6h42.667c5.12 0 8.533 3.413 8.533 8.533s-3.413 8.534-8.533 8.534zm-68.267 0h-8.533c-5.12 0-8.533-3.413-8.533-8.533s3.413-8.533 8.533-8.533h8.533c5.12 0 8.533 3.413 8.533 8.533s-3.413 8.533-8.533 8.533zm51.2 422.4c0 11.947-9.387 21.333-21.333 21.333-11.947 0-21.333-9.387-21.333-21.333 0-11.947 9.387-21.333 21.333-21.333 11.946-.001 21.333 9.386 21.333 21.333"/><path d="M29.867 102.4c-5.12 0-8.533-3.413-8.533-8.533v-8.533c0-5.12 3.413-8.533 8.533-8.533s8.533 3.413 8.533 8.533v8.533c0 5.12-3.413 8.533-8.533 8.533zm0 34.133c-5.12 0-8.533-3.413-8.533-8.533v-8.533c0-5.12 3.413-8.533 8.533-8.533s8.533 3.413 8.533 8.533V128c0 5.12-3.413 8.533-8.533 8.533zm0 34.134c-5.12 0-8.533-3.413-8.533-8.533V153.6c0-5.12 3.413-8.533 8.533-8.533S38.4 148.48 38.4 153.6v8.533c0 5.12-3.413 8.534-8.533 8.534zm153.6 162.133c-5.12 0-8.533-4.267-8.533-8.533 3.413-87.893-11.947-110.08-11.947-110.933-2.56-3.413-1.707-9.387 1.707-11.947 3.413-2.56 8.533-2.56 11.947 1.707 1.707 2.56 18.773 26.453 15.36 122.027-.001 4.266-4.268 7.679-8.534 7.679z"/><path d="M115.2 332.8c-5.12 0-8.533-4.267-8.533-8.533 2.56-69.12-2.56-90.453-3.413-93.013-1.707-7.68-3.413-16.213-2.56-23.893.853-19.627 8.533-46.933 29.013-61.44 4.267-2.56 9.387-1.707 11.947 1.707 2.56 4.267 1.707 9.387-1.707 11.947-14.507 10.24-21.333 31.573-22.187 47.787 0 6.827.853 12.8 2.56 18.773s5.973 29.867 4.267 98.133c-.854 5.119-5.12 8.532-9.387 8.532zm119.467-17.067c-5.12 0-8.533-4.267-8.533-8.533l.853-15.36c1.707-39.253 2.56-63.147-1.707-82.773-1.707-7.68-3.413-14.507-6.827-21.333C209.92 167.253 192 153.6 171.52 153.6c-3.413 0-7.68 0-11.093.853-4.267.853-9.387-1.707-10.24-6.827-.853-4.267 1.707-9.387 6.827-10.24 5.12-.853 10.24-1.707 15.36-1.707 27.307 0 51.2 17.067 63.147 44.373 3.413 7.68 5.973 16.213 7.68 24.747 4.267 21.333 3.413 46.08 1.707 87.04L243.2 307.2c0 5.12-4.267 8.533-8.533 8.533zm-25.6 11.947c-5.12 0-8.533-4.267-8.533-8.533V302.08c0-4.267 4.267-8.533 8.533-8.533 5.12 0 8.533 4.267 8.533 8.533V320c0 3.413-3.413 7.68-8.533 7.68z"/><path d="M209.92 287.573c-4.267 0-8.533-3.413-8.533-8.533-.853-36.693-4.267-58.027-7.68-69.12-.853-4.267 1.707-9.387 5.973-10.24s9.387 1.707 10.24 5.973c4.267 17.92 7.68 41.813 8.533 73.387 0 4.267-3.413 8.533-8.533 8.533z"/><path d="M202.24 215.893c-3.413 0-6.827-2.56-8.533-5.973-1.707-5.973-2.56-8.533-3.413-10.24-4.267-11.093-17.92-16.213-29.013-11.947-7.68 3.413-13.653 11.093-13.653 20.48 0 5.12-4.267 8.533-8.533 8.533-5.12 0-8.533-4.267-8.533-8.533.853-15.36 10.24-29.013 23.893-34.987 5.12-1.707 10.24-3.413 15.36-3.413 16.213 0 29.867 9.387 36.693 23.893.853 1.707 2.56 5.973 4.267 12.8.853 4.267-1.707 9.387-5.973 10.24-1.709-.853-1.709-.853-2.562-.853z"/><path d="M149.333 332.8c-5.12 0-8.533-4.267-8.533-8.533 2.56-66.56-4.267-93.013-7.68-100.693v-.853c-1.707-4.267-2.56-9.387-2.56-14.507 0-5.12 4.267-8.533 8.533-8.533 5.12 0 8.533 4.267 8.533 8.533 0 2.56 0 5.973 1.707 8.533 4.267 11.947 11.093 40.96 9.387 108.373-.853 4.267-5.12 7.68-9.387 7.68zm332.8 179.2H362.667c-5.12 0-8.533-3.413-8.533-8.533V281.6c0-21.333 11.093-40.96 29.867-52.053 2.56-1.707 5.973-1.707 8.533 0 2.56 1.707 4.267 4.267 4.267 7.68v52.053H448v-52.053c0-3.413 1.707-5.973 4.267-7.68 2.56-1.707 5.973-1.707 8.533 0 18.773 10.24 29.867 30.72 29.867 52.053v221.867c0 5.12-3.414 8.533-8.534 8.533zM371.2 494.933h102.4V281.6c0-9.387-3.413-17.92-8.533-25.6v42.667c0 5.12-3.413 8.533-8.533 8.533h-68.267c-5.12 0-8.533-3.413-8.533-8.533V256c-5.12 7.68-8.533 16.213-8.533 25.6v213.333z"/><path d="M439.467 443.733h-34.133c-5.12 0-8.533-3.413-8.533-8.533 0-5.12 3.413-8.533 8.533-8.533h34.133c5.12 0 8.533 3.413 8.533 8.533 0 5.12-3.413 8.533-8.533 8.533zM448 477.867h-51.2c-5.12 0-8.533-3.413-8.533-8.533 0-5.12 3.413-8.533 8.533-8.533H448c5.12 0 8.533 3.413 8.533 8.533 0 5.119-3.413 8.533-8.533 8.533zm8.533-170.667h-68.267c-5.12 0-8.533-3.413-8.533-8.533v-76.8c0-23.893 18.773-42.667 42.667-42.667 23.893 0 42.667 18.773 42.667 42.667v76.8c0 5.12-3.414 8.533-8.534 8.533zM396.8 290.133H448v-68.267c0-14.507-11.093-25.6-25.6-25.6s-25.6 11.093-25.6 25.6v68.267z"/></svg>