<svg xmlns="http://www.w3.org/2000/svg" viewBox="0 0 512 512"><g fill="#2d527c"><path d="M99.92 470.326c-8.114 0-14.69-6.577-14.69-14.69V42.094C85.23 18.883 104.113 0 127.324 0s42.094 18.883 42.094 42.094v308.164c0 8.114-6.577 14.69-14.69 14.69-8.114 0-14.69-6.577-14.69-14.69V42.094c0-7.009-5.703-12.713-12.713-12.713-7.009 0-12.712 5.703-12.712 12.713v413.542c-.002 8.113-6.579 14.69-14.693 14.69z"/><path d="M446.742 273.396H86.662c-8.114 0-14.69-6.577-14.69-14.69V55.023c0-8.114 6.577-14.69 14.69-14.69h360.08a14.692 14.692 0 0112.532 22.357l-30.007 49.035c-4.234 6.921-13.274 9.099-20.198 4.864-6.921-4.235-9.096-13.277-4.863-20.198l16.323-26.678H101.353v174.304h319.179l-42.683-69.753c-4.235-6.919-2.058-15.963 4.863-20.198 6.922-4.234 15.963-2.058 20.198 4.863l56.364 92.112a14.69 14.69 0 01.285 14.851 14.699 14.699 0 01-12.817 7.504z"/></g><path fill="#cee8fa" d="M86.662 55.022h81.326v203.683H86.662z"/><g fill="#2d527c"><path d="M167.985 273.396H86.662c-8.114 0-14.69-6.577-14.69-14.69V55.023c0-8.114 6.577-14.69 14.69-14.69h81.323c8.114 0 14.69 6.577 14.69 14.69v203.684c.001 8.113-6.576 14.689-14.69 14.689zm-66.632-29.38h51.942V69.713h-51.942v174.303z"/><path d="M323.866 171.555h-155.88c-8.114 0-14.69-6.577-14.69-14.69 0-8.114 6.577-14.69 14.69-14.69h155.88c8.112 0 14.69 6.577 14.69 14.69s-6.578 14.69-14.69 14.69z"/></g><path fill="#cee8fa" d="M189.391 497.31H65.257l29.384-53.964h65.366z"/><path d="M189.42 512H65.257a14.689 14.689 0 01-12.901-21.716L81.74 436.32a14.69 14.69 0 0112.901-7.665h65.367a14.69 14.69 0 0112.901 7.665l28.959 53.184a14.622 14.622 0 012.243 7.805c0 8.114-6.579 14.691-14.691 14.691zm-99.438-29.381h74.682l-13.386-24.583h-47.91l-13.386 24.583z" fill="#2d527c"/></svg>