<svg xmlns="http://www.w3.org/2000/svg" viewBox="0 0 512 512"><path d="M331.578 512H183.924c-7.768 0-14.065-6.298-14.065-14.064V43.977C169.86 19.727 189.588 0 213.838 0h87.827c24.249 0 43.977 19.727 43.977 43.977v453.96c0 7.766-6.296 14.063-14.064 14.063zm-133.589-28.129h119.523V43.977c0-8.738-7.11-15.848-15.848-15.848h-87.827c-8.738 0-15.848 7.11-15.848 15.848v439.894z" fill="#2d527c"/><path fill="#cee8fa" d="M228.056 182.149h59.394v176.692h-59.394z"/><path d="M287.452 372.916h-59.4c-7.768 0-14.065-6.298-14.065-14.065V182.156c0-7.766 6.297-14.064 14.065-14.064h59.4c7.768 0 14.065 6.298 14.065 14.064v176.697c-.001 7.766-6.297 14.063-14.065 14.063zm-45.337-28.129h31.271V196.221h-31.271v148.566zm10.121-262.192h-68.31c-7.768 0-14.064-6.298-14.064-14.065s6.297-14.065 14.064-14.065h68.31c7.768 0 14.064 6.298 14.064 14.065s-6.297 14.065-14.064 14.065zm73.826 361.611h-68.31c-7.768 0-14.064-6.298-14.064-14.065s6.297-14.065 14.064-14.065h68.31c7.768 0 14.064 6.298 14.064 14.065s-6.297 14.065-14.064 14.065zM180.424 512H60.904c-7.768 0-14.065-6.298-14.065-14.064V139.624c0-24.249 19.728-43.977 43.977-43.977h44.223c7.768 0 14.065 6.298 14.065 14.065s-6.297 14.065-14.065 14.065H90.815c-8.738 0-15.848 7.11-15.848 15.848v344.247h105.456c7.768 0 14.065 6.298 14.065 14.065-.001 7.765-6.296 14.063-14.064 14.063z" fill="#2d527c"/><path fill="#cee8fa" d="M60.899 429.024h119.52v68.916H60.899z"/><path d="M180.422 512H60.902c-7.768 0-14.065-6.298-14.065-14.064V429.02c0-7.766 6.297-14.065 14.065-14.065h119.52c7.768 0 14.064 6.298 14.064 14.065v68.916c.001 7.767-6.296 14.064-14.064 14.064zM74.967 483.871h91.391v-40.787H74.967v40.787zm60.111-273.584h-28.832c-7.768 0-14.064-6.298-14.064-14.065 0-7.766 6.297-14.064 14.064-14.064h28.832c7.768 0 14.065 6.298 14.065 14.064 0 7.767-6.297 14.065-14.065 14.065zm0 79.47h-28.832c-7.768 0-14.064-6.298-14.064-14.064s6.297-14.065 14.064-14.065h28.832c7.768 0 14.065 6.298 14.065 14.065s-6.297 14.064-14.065 14.064zM451.098 512h-119.52c-7.768 0-14.064-6.298-14.064-14.064V139.624c0-24.249 19.728-43.977 43.977-43.977h44.223c7.768 0 14.064 6.298 14.064 14.065s-6.297 14.065-14.064 14.065H361.49c-8.738 0-15.848 7.11-15.848 15.848v344.247h105.456c7.768 0 14.064 6.298 14.064 14.065 0 7.765-6.296 14.063-14.064 14.063z" fill="#2d527c"/><path fill="#cee8fa" d="M331.571 429.024h119.52v68.916h-119.52z"/><g fill="#2d527c"><path d="M451.098 512h-119.52c-7.768 0-14.064-6.298-14.064-14.064V429.02c0-7.766 6.297-14.065 14.064-14.065h119.52c7.768 0 14.064 6.298 14.064 14.065v68.916c0 7.767-6.296 14.064-14.064 14.064zm-105.456-28.129h91.391v-40.787h-91.391v40.787zm60.112-273.584h-28.832c-7.768 0-14.064-6.298-14.064-14.065 0-7.766 6.297-14.064 14.064-14.064h28.832c7.768 0 14.065 6.298 14.065 14.064-.001 7.767-6.297 14.065-14.065 14.065zm0 79.47h-28.832c-7.768 0-14.064-6.298-14.064-14.064s6.297-14.065 14.064-14.065h28.832c7.768 0 14.065 6.298 14.065 14.065s-6.297 14.064-14.065 14.064z"/><path d="M451.098 443.084c-7.768 0-14.065-6.298-14.065-14.064V196.222c0-7.766 6.297-14.064 14.065-14.064s14.064 6.298 14.064 14.064v232.797c0 7.768-6.296 14.065-14.064 14.065z"/></g></svg>