<svg xmlns="http://www.w3.org/2000/svg" viewBox="0 0 502 502"><path fill="#d1dceb" d="M282.298 209.766l3.964 3.964-3.962-3.962z"/><path d="M459.094 300.357l-133.69-133.691-.012-.012c-30.269-30.26-74.483-40.018-113.681-27.476a111.432 111.432 0 00-28.26 13.66c-13.968 9.393-17.678 28.33-8.285 42.3 9.392 13.968 28.331 17.677 42.299 8.285 20.266-13.628 47.532-10.958 64.835 6.343l.002.002 3.963 3.963L415.991 343.46c9.69 9.689 15.027 22.573 15.027 36.277 0 13.703-5.337 26.587-15.027 36.279-9.69 9.69-22.574 15.027-36.278 15.027s-26.588-5.337-36.278-15.027l-53.179-53.179a112.088 112.088 0 01-34.274 5.381c-28.963.002-57.724-11.172-79.435-32.884l-9.916-9.916.01.01 133.691 133.69C321.534 480.323 349.726 492 379.712 492s58.178-11.677 79.381-32.881c21.203-21.203 32.881-49.395 32.881-79.381.001-29.988-11.677-58.178-32.88-79.381z" fill="#4ec9dc"/><path d="M327.23 306.218c-9.518-13.883-28.489-17.425-42.372-7.905-20.326 13.937-47.752 11.376-65.209-6.082l-133.69-133.69c-20.004-20.004-20.004-52.553 0-72.557 9.69-9.69 22.574-15.027 36.278-15.027s26.588 5.337 36.278 15.027l53.195 53.194c39.198-12.543 83.412-2.784 113.681 27.476L201.618 42.881C180.415 21.677 152.223 10 122.237 10S64.059 21.677 42.855 42.881c-43.771 43.771-43.771 114.992 0 158.762L166.63 325.418l9.916 9.916c21.711 21.712 50.472 32.886 79.435 32.884 11.538 0 23.105-1.793 34.274-5.381a111.816 111.816 0 0029.069-14.247c13.884-9.517 17.424-28.488 7.906-42.372z" fill="#d1dceb"/><path d="M208.689 35.811C185.596 12.718 154.894 0 122.237 0s-63.36 12.718-86.453 35.811C12.726 58.869.027 89.571.027 122.263s12.699 63.394 35.757 86.452L293.259 466.19c23.093 23.092 53.796 35.81 86.453 35.81s63.36-12.718 86.452-35.811c23.092-23.092 35.81-53.794 35.81-86.452 0-32.657-12.717-63.359-35.81-86.452L208.689 35.811zM49.927 194.572c-19.281-19.28-29.899-44.961-29.899-72.31s10.619-53.029 29.899-72.31C69.242 30.638 94.922 20 122.237 20s52.995 10.638 72.311 29.953l76.476 76.476.038.02a122.69 122.69 0 00-56.479 1.492l.011-.021-49.008-49.008c-11.579-11.578-26.974-17.955-43.349-17.955s-31.77 6.377-43.349 17.955c-23.902 23.903-23.902 62.797 0 86.7l133.69 133.69c20.863 20.863 53.639 23.916 77.935 7.258a20.34 20.34 0 0115.333-3.24c5.377 1.003 10.042 4.041 13.135 8.553s4.244 9.958 3.241 15.335a20.345 20.345 0 01-8.553 13.135 101.912 101.912 0 01-26.474 12.974 101.936 101.936 0 01-31.215 4.901c-27.347.002-53.046-10.637-72.364-29.955L49.927 194.572zm116.939 6.145c6.033 8.973 15.199 15.059 25.81 17.137 10.608 2.079 21.395-.1 30.367-6.132 16.304-10.964 38.245-8.814 52.178 5.109l.006.007 3.964 3.964.01.009L408.92 350.532c7.801 7.801 12.098 18.173 12.098 29.206 0 11.032-4.297 21.406-12.098 29.208-7.802 7.801-18.175 12.098-29.207 12.098-11.033 0-21.405-4.297-29.207-12.098l-42.431-42.431a121.808 121.808 0 0016.904-9.675c8.918-6.113 14.922-15.334 16.905-25.963s-.292-21.394-6.405-30.312-15.334-14.922-25.962-16.905c-10.632-1.98-21.395.292-30.312 6.407-16.354 11.212-38.427 9.15-52.483-4.906L93.03 151.47c-16.104-16.104-16.104-42.311 0-58.415 7.802-7.802 18.174-12.098 29.207-12.098s21.405 4.296 29.207 12.098l42.431 42.43a120.784 120.784 0 00-16.005 9.055c-18.522 12.454-23.459 37.655-11.004 56.177zm285.156 251.33C432.708 471.362 407.027 482 379.712 482s-52.996-10.638-72.31-29.953l-76.353-76.353-.023-.013a123.533 123.533 0 0024.956 2.536 121.73 121.73 0 0031.409-4.14l-.013.024 48.986 48.986c11.58 11.578 26.975 17.955 43.349 17.955s31.769-6.377 43.349-17.956c11.579-11.58 17.956-26.976 17.956-43.35 0-16.375-6.377-31.771-17.956-43.349L293.334 206.66l-3.965-3.965c-20.675-20.674-53.264-23.856-77.485-7.571a20.345 20.345 0 01-15.364 3.103 20.341 20.341 0 01-13.057-8.669c-6.301-9.371-3.804-22.121 5.566-28.422a101.573 101.573 0 0125.728-12.434c36.696-11.739 76.378-2.152 103.564 25.023l.083.082 133.619 133.62c19.315 19.314 29.952 44.995 29.952 72.31 0 27.316-10.638 52.996-29.953 72.31z"/><path d="M191.072 311.071c3.905-3.905 3.905-10.237 0-14.143l-11.998-11.998c-3.905-3.904-10.237-3.904-14.143 0-3.905 3.905-3.905 10.237 0 14.143l11.998 11.998c1.953 1.952 4.512 2.929 7.071 2.929s5.12-.977 7.072-2.929zm-114-128.142c-3.905-3.903-10.237-3.904-14.142 0-3.905 3.905-3.905 10.237 0 14.143l75.999 75.999c1.953 1.952 4.512 2.929 7.071 2.929s5.119-.977 7.071-2.929c3.905-3.905 3.905-10.237 0-14.143l-75.999-75.999z"/></svg>