<svg xmlns="http://www.w3.org/2000/svg" viewBox="0 0 512 512"><path d="M95.937 176.251l.586 312.203c.017 8.842-7.139 16.024-15.981 16.041-8.842.017-16.024-7.139-16.041-15.981l-.782-416.275c-.017-8.842 7.139-16.024 15.981-16.041s16.024 7.139 16.041 15.981l.045 24.018" fill="#f0dcbe"/><path d="M207.695 7.926l224.126-.421c12.087-.023 19.839 12.843 14.171 23.519l-51.304 96.631 51.666 96.438c5.708 10.654-1.996 23.549-14.082 23.572l-160.083.3h-61.648L207.695 7.926z" fill="#d2555a"/><path fill="#ff6464" d="M95.74 72.179l176.117-.331.452 240.159-176.117.331"/><path fill="#d2555a" d="M95.73 72.186l24.026-.045.456 240.16-24.026.045z"/><path fill="#be4b50" d="M207.737 7.926h-.042l.12 64.043 63.998-.121z"/><path fill="#ff6464" d="M271.857 71.848h-.044l.044.044z"/><path d="M95.846 120.709h-.015a7.505 7.505 0 00-7.491 7.519l.03 16.01a7.504 7.504 0 007.505 7.491h.015a7.505 7.505 0 007.491-7.519l-.03-16.01a7.505 7.505 0 00-7.505-7.491z"/><path d="M452.97 220.547l-49.776-92.91 49.427-93.096c3.91-7.364 3.674-16.024-.628-23.164C447.697 4.251 440.171 0 431.854 0h-.047L207.68.421a7.506 7.506 0 00-7.491 7.519l.106 56.538-98.288.184a23.41 23.41 0 00-5.681-9.112c-4.44-4.423-10.331-6.857-16.595-6.857h-.045c-12.967.024-23.496 10.593-23.472 23.56l.783 416.275c.024 12.953 10.568 23.473 23.516 23.472h.045a23.37 23.37 0 0016.615-6.919 23.358 23.358 0 006.857-16.64l-.317-168.612 168.612-.317a7.505 7.505 0 007.491-7.519l-.106-56.538 152.579-.287c8.337-.016 15.867-4.298 20.142-11.454 4.274-7.157 4.476-15.817.539-23.167zM215.234 26.03l38.491 38.346-38.419.072-.072-38.418zM103.683 304.819l-.242-128.582a7.504 7.504 0 00-7.505-7.491h-.015a7.505 7.505 0 00-7.491 7.519l.586 312.204c.004 2.272-.877 4.409-2.481 6.019s-3.737 2.499-6.009 2.503h-.017a8.45 8.45 0 01-6.003-2.481 8.45 8.45 0 01-2.503-6.009l-.78-416.275a8.451 8.451 0 012.481-6.02 8.446 8.446 0 016.009-2.503h.017a8.45 8.45 0 016.003 2.481 8.45 8.45 0 012.503 6.009l.045 24.019a7.504 7.504 0 007.505 7.491h.015a7.505 7.505 0 007.491-7.519l-.031-16.514 104.548-.196h.028l56.531-.106.423 225.148-161.108.303zm335.861-68.803c-.742 1.243-2.939 4.135-7.286 4.143l-152.579.287-.317-168.611-.001-.018a7.573 7.573 0 00-.038-.722c-.011-.112-.032-.22-.048-.33-.019-.132-.035-.264-.061-.395-.026-.127-.061-.251-.093-.376-.028-.112-.053-.224-.087-.334-.037-.122-.083-.241-.127-.36-.04-.111-.077-.223-.122-.332-.046-.111-.1-.217-.151-.325-.054-.114-.104-.229-.164-.34-.055-.103-.119-.201-.179-.301-.066-.109-.128-.22-.199-.327-.074-.11-.156-.214-.236-.319-.068-.09-.13-.182-.202-.27a7.319 7.319 0 00-.495-.546l-.004-.004-51.326-51.134 206.009-.388h.019c4.334 0 6.535 2.877 7.282 4.115.747 1.24 2.266 4.54.227 8.38l-51.303 96.63a7.507 7.507 0 00.013 7.064l51.666 96.438c2.05 3.827.544 7.132-.198 8.375z"/><path d="M407.387 39.572a7.504 7.504 0 00-7.505-7.491h-.015l-104.069.195a7.505 7.505 0 00.014 15.01h.015l104.069-.195a7.506 7.506 0 007.491-7.519zm-167.49 56.852h-.015l-40.027.075a7.505 7.505 0 00.014 15.01h.015l40.027-.075a7.505 7.505 0 00-.014-15.01z"/></svg>