<svg xmlns="http://www.w3.org/2000/svg" viewBox="0 0 512.002 512.002"><path d="M162.283 98.603v248.19c-9.727-3.439-20.312-5.062-31.361-4.401-40.456 2.418-72.937 35.46-74.661 75.95-1.924 45.157 33.806 82.435 78.392 83.043 44.556.607 80.679-36.138 80.679-80.698V174.451a14.954 14.954 0 0110.963-14.412l157.528-43.634c9.526-2.639 18.947 4.527 18.947 14.412v156.031c-9.725-3.439-20.307-5.061-31.353-4.401-40.454 2.414-72.938 35.448-74.669 75.937-1.931 45.161 33.798 82.446 78.386 83.057 44.558.61 80.683-36.135 80.683-80.698V25.581c0-9.885-9.42-17.051-18.947-14.412L173.246 84.19a14.956 14.956 0 00-10.963 14.413z" fill="#f37934"/><g fill="#231f20"><path d="M456.339 5.233c-6.411-4.876-14.538-6.44-22.3-4.289L170.413 73.966c-11.034 3.057-18.741 13.188-18.741 24.638v234.44a90.413 90.413 0 00-21.384-1.242c-22.192 1.327-43.071 10.863-58.788 26.852-15.718 15.989-24.895 37.027-25.841 59.238-1.048 24.619 7.672 48.012 24.555 65.871 16.894 17.871 39.727 27.896 64.293 28.231.416.005.826.008 1.241.008 23.595-.001 45.875-9.181 62.853-25.928 17.629-17.39 27.338-40.612 27.338-65.386V174.451a4.359 4.359 0 013.185-4.188l157.528-43.633c1.811-.5 3.151.243 3.79.73.641.487 1.715 1.584 1.715 3.458v142.281a90.438 90.438 0 00-21.374-1.242c-22.191 1.325-43.07 10.857-58.788 26.842-15.719 15.986-24.9 37.021-25.849 59.232-1.051 24.622 7.667 48.017 24.548 65.88 16.894 17.874 39.727 27.902 64.296 28.239 24.065.336 46.82-8.876 64.098-25.918 17.63-17.391 27.34-40.613 27.34-65.388V25.582c-.002-8.055-3.678-15.471-10.089-20.349zm-11.132 355.509c0 19.053-7.466 36.91-21.022 50.282-13.204 13.023-30.538 20.052-48.906 19.807-18.783-.257-36.244-7.928-49.164-21.597-12.908-13.658-19.574-31.556-18.767-50.397 1.489-34.821 29.909-63.723 64.701-65.799 9.303-.557 18.454.728 27.183 3.813a10.608 10.608 0 0014.147-10.003v-156.03c0-8.054-3.677-15.471-10.088-20.347-6.411-4.877-14.542-6.439-22.3-4.289l-157.528 43.633c-11.034 3.057-18.741 13.188-18.741 24.637v246.235c0 19.052-7.465 36.909-21.021 50.28-13.203 13.023-30.581 20.047-48.904 19.809-18.782-.256-36.243-7.923-49.162-21.591-12.909-13.656-19.577-31.551-18.775-50.392 1.483-34.823 29.901-63.731 64.696-65.812a71.014 71.014 0 014.221-.126 68.666 68.666 0 0122.97 3.939 10.608 10.608 0 0014.147-10.003V98.603a4.358 4.358 0 013.185-4.188l263.626-73.021c1.798-.502 3.148.241 3.789.729.641.487 1.715 1.584 1.715 3.459v335.16h-.002z"/><path d="M109.238 421.464c.003-.286.011-.574.022-.862.251-5.854-4.289-10.804-10.145-11.055-5.857-.258-10.804 4.291-11.055 10.145a48.479 48.479 0 00-.041 1.522c-.069 5.859 4.625 10.665 10.484 10.734h.127c5.802.001 10.539-4.668 10.608-10.484zm63.655-11.387c-5.86 0-10.61 4.75-10.61 10.61 0 15.25-11.907 27.656-26.477 27.656l-.43-.002c-6.214-.085-11.986-2.234-16.69-6.215-4.472-3.784-11.167-3.229-14.952 1.245-3.786 4.472-3.227 11.167 1.245 14.952 8.505 7.198 18.916 11.083 30.188 11.237l.575.003c26.335 0 47.762-21.926 47.762-48.876-.002-5.86-4.752-10.61-10.611-10.61zm176.844-49.139l.008-.224c.285-5.853-4.227-10.829-10.08-11.115-5.865-.288-10.829 4.228-11.115 10.08-.011.223-.019.445-.024.666-.163 5.858 4.452 10.738 10.31 10.901.101.002.201.004.3.004 5.722.002 10.44-4.556 10.601-10.312zm63.642-10.806c-5.859 0-10.61 4.75-10.61 10.61 0 15.25-11.907 27.657-26.467 27.658l-.442-.003c-5.559-.076-10.835-1.834-15.254-5.083-4.72-3.47-11.362-2.459-14.832 2.263-3.47 4.72-2.457 11.361 2.263 14.832 8.003 5.884 17.524 9.067 27.604 9.205l.588.004c26.335 0 47.762-21.926 47.762-48.877-.003-5.859-4.753-10.609-10.612-10.609z"/></g></svg>