<svg xmlns="http://www.w3.org/2000/svg" viewBox="0 0 512 512"><path d="M473.336 43.216s-.329 277.711-.775 280.835c-2.819 19.736-13.028 39.26-28.734 54.966-15.718 15.718-35.231 25.915-54.966 28.734a77.333 77.333 0 01-10.902.799c-16.54 0-31.19-5.686-41.986-16.493-13.134-13.122-18.702-31.906-15.706-52.887 2.819-19.736 13.028-39.26 28.734-54.966 15.718-15.718 35.231-25.927 54.966-28.746 17.492-2.49 33.445.987 45.874 9.809V110.835l-257.317 94.79s-.012 212.477-.023 212.653a77.788 77.788 0 01-.752 9.222c-2.819 19.736-13.028 39.26-28.734 54.966-15.718 15.718-35.231 25.915-54.966 28.734-3.712.529-7.342.799-10.902.799-16.54 0-31.178-5.698-41.986-16.493-13.122-13.122-18.702-31.906-15.706-52.899 2.819-19.724 13.028-39.248 28.734-54.966 15.718-15.706 35.231-25.915 54.966-28.734 17.492-2.49 33.445.987 45.874 9.809v-245.24c0-18.021 11.372-34.326 28.288-40.552l217.857-80.26a43.247 43.247 0 0139.66 5.098 43.263 43.263 0 0118.502 35.454zm-23.495 270.287v-.329c-.023-10.279-3.325-19.125-9.598-25.398-6.297-6.297-15.178-9.598-25.504-9.598-2.408 0-4.899.176-7.448.54-14.731 2.115-29.533 9.95-41.68 22.097-12.135 12.135-19.982 26.937-22.085 41.668-1.927 13.486 1.292 25.187 9.057 32.963 7.765 7.765 19.466 10.984 32.952 9.057 14.731-2.115 29.533-9.95 41.668-22.097 12.147-12.147 19.994-26.937 22.097-41.68.353-2.466.529-4.874.541-7.223zm0-227.702V43.216c0-6.543-3.078-12.441-8.446-16.176-5.357-3.747-11.959-4.593-18.091-2.338l-217.869 80.259c-7.718 2.855-12.91 10.291-12.91 18.514v57.116l257.316-94.79zM169.029 416.974v-.376c-.023-10.267-3.325-19.101-9.598-25.375-6.297-6.297-15.178-9.598-25.492-9.598-2.42 0-4.899.176-7.46.54-14.731 2.103-29.533 9.95-41.668 22.097-12.147 12.135-19.994 26.937-22.097 41.668-1.927 13.486 1.292 25.187 9.057 32.952 7.765 7.777 19.477 10.984 32.952 9.057 14.731-2.103 29.533-9.95 41.68-22.085 12.135-12.147 19.982-26.949 22.085-41.68.353-2.465.529-4.862.541-7.2z" fill="#1e0478"/><path d="M449.841 313.174v.329a53.031 53.031 0 01-.54 7.225c-2.103 14.743-9.95 29.533-22.097 41.68-12.135 12.147-26.937 19.982-41.668 22.097-13.486 1.927-25.187-1.292-32.952-9.057-7.765-7.777-10.984-19.477-9.057-32.963 2.103-14.731 9.95-29.533 22.085-41.668 12.147-12.147 26.949-19.982 41.68-22.097 2.549-.364 5.04-.54 7.448-.54 10.326 0 19.207 3.301 25.504 9.598 6.272 6.271 9.573 15.117 9.597 25.396z" fill="#94e7ef"/><path d="M449.841 43.216v42.585l-257.317 94.79v-57.116c0-8.223 5.192-15.659 12.91-18.514l217.869-80.259c6.132-2.256 12.734-1.41 18.091 2.338 5.369 3.736 8.447 9.633 8.447 16.176z" fill="#9b8ccc"/><path d="M169.029 416.599v.376a52.817 52.817 0 01-.54 7.201c-2.103 14.731-9.95 29.533-22.085 41.68-12.147 12.135-26.949 19.982-41.68 22.085-13.474 1.927-25.187-1.28-32.952-9.057-7.765-7.765-10.984-19.466-9.057-32.952 2.103-14.731 9.95-29.533 22.097-41.668 12.135-12.147 26.937-19.994 41.668-22.097 2.561-.364 5.04-.54 7.46-.54 10.314 0 19.195 3.301 25.492 9.598 6.273 6.272 9.574 15.106 9.597 25.374z" fill="#94e7ef"/></svg>