<svg xmlns="http://www.w3.org/2000/svg" viewBox="0 0 511.986 511.986"><path d="M92.662 291.883c0 21.812-17.672 39.483-39.468 39.483-21.805 0-39.476-17.672-39.476-39.483 0-21.796 17.671-39.468 39.476-39.468 21.796 0 39.468 17.672 39.468 39.468zm213.986-23.702c0 21.812-17.656 39.482-39.46 39.482-21.804 0-39.476-17.671-39.476-39.482 0-21.796 17.672-39.468 39.476-39.468s39.46 17.671 39.46 39.468zm109.341 150.996c0 21.812-17.671 39.482-39.468 39.482-21.812 0-39.467-17.671-39.467-39.482 0-21.797 17.655-39.469 39.467-39.469 21.797 0 39.468 17.672 39.468 39.469z" fill="#ffce54"/><path d="M99.998 91.997v64.998l206.65-36.327 6.344-71.67zm315.991 118.669v69.999l71.998-38.672z" fill="#ed5564"/><path d="M319.992 42.655L85.334 85.279v160.059c-8.914-6.719-19.992-10.688-31.999-10.688C23.875 234.65 0 258.54 0 287.992s23.875 53.343 53.335 53.343c29.452 0 53.326-23.891 53.326-53.343V167.37l191.987-34.874v91.498a53.092 53.092 0 00-31.991-10.656c-29.452 0-53.327 23.875-53.327 53.312 0 29.468 23.875 53.342 53.327 53.342 29.46 0 53.335-23.874 53.335-53.342V42.655zM53.335 319.991c-17.648 0-31.999-14.359-31.999-31.999 0-17.655 14.351-31.999 31.999-31.999 17.64 0 31.999 14.344 31.999 31.999 0 17.64-14.36 31.999-31.999 31.999zm53.326-216.9l191.987-34.874v42.593l-191.987 34.873v-42.592zm159.996 195.557c-17.641 0-31.999-14.344-31.999-31.999 0-17.625 14.358-32 31.999-32 17.647 0 31.991 14.375 31.991 32 0 17.656-14.343 31.999-31.991 31.999zm245.329-53.217l-106.652-53.343v181.246a52.997 52.997 0 00-32-10.688c-29.468 0-53.342 23.89-53.342 53.343 0 29.452 23.874 53.342 53.342 53.342 29.438 0 53.312-23.89 53.312-53.342V288.086l85.34-42.655zM373.334 447.988c-17.655 0-31.999-14.359-31.999-31.999 0-17.656 14.344-32 31.999-32 17.625 0 32 14.344 32 32 0 17.64-14.375 31.999-32 31.999zm53.311-221.369l37.64 18.812-37.64 18.812v-37.624z"/></svg>