<svg xmlns="http://www.w3.org/2000/svg" viewBox="0 0 502 502"><circle cx="93.663" cy="399.596" r="83.663" fill="#f77e65"/><circle cx="408.337" cy="357.14" r="83.663" fill="#f77e65"/><path fill="#f0efe4" d="M177.326 61.197L492 18.741v69.927l-314.674 42.456z"/><path d="M492 126.119c-5.522 0-10 4.478-10 10v9.989c0 5.522 4.478 10 10 10s10-4.478 10-10v-9.989c0-5.522-4.478-10-10-10zm0 54.94c-5.522 0-10 4.478-10 10V299.35c-17.163-21.83-43.804-35.875-73.663-35.875-51.646 0-93.663 42.017-93.663 93.663s42.017 93.663 93.663 93.663S502 408.786 502 357.139v-166.08c0-5.522-4.478-10-10-10zm-83.663 249.744c-40.618 0-73.663-33.045-73.663-73.663s33.045-73.663 73.663-73.663S482 316.521 482 357.139s-33.045 73.664-73.663 73.664zm-241.01-88.996c-17.163-21.83-43.804-35.875-73.664-35.875C42.017 305.932 0 347.949 0 399.596s42.017 93.663 93.663 93.663 93.664-42.017 93.664-93.663v-259.73l306.01-41.287a10 10 0 008.663-9.91V18.741a9.997 9.997 0 00-11.337-9.91L175.99 51.287a10 10 0 00-8.663 9.91v280.61zM93.663 473.259C53.045 473.259 20 440.214 20 399.596s33.045-73.663 73.663-73.663 73.664 33.045 73.664 73.663-33.046 73.663-73.664 73.663zM482 79.927l-294.673 39.758V69.938L482 30.18v49.747z"/><path d="M91 344.544c-28.924 0-52.456 23.531-52.456 52.456 0 5.522 4.477 10 10 10s10-4.478 10-10c0-17.896 14.56-32.456 32.456-32.456 5.523 0 10-4.478 10-10s-4.477-10-10-10z"/></svg>