<svg xmlns="http://www.w3.org/2000/svg" viewBox="0 0 512 512"><path fill="#656d78" d="M97.008 417l-7 50.5 20.719 30.5h127.281l153 5 24-28.344L418.992 415z"/><path d="M274.008 457.016c0 12.969-8.359 23.484-18.656 23.484-10.312 0-18.656-10.516-18.656-23.484 0-12.984 8.344-23.5 18.656-23.5 10.296 0 18.656 10.515 18.656 23.5z" fill="#f5f7fa"/><path fill="#656d78" d="M101.76 12.391h308.25V56H101.76z"/><path fill="#4fc2e9" d="M90.01 95.33h328.98V415H90.01z"/><path fill="#ed5564" d="M93.961 49.625l-8 24.766-15.641 46.14 9.907 26.688 39.281 3.422 24.015-24.391 7.61-76.75z"/><path fill="#f5f7fa" d="M155.992 49.5l-12.469 76.75 21.094 27.203 25.86 3.047 24.984-22.375 7.547-84.625z"/><path fill="#ed5564" d="M288.664 53.297h-63.531l-8.203 64.469 15.297 28.546 32.546 4.329 23.891-12.438 3.047-23.906z"/><path fill="#f5f7fa" d="M357.805 49.5l-69.141 3.797 5.578 70.141 15.766 27.203 33.562 2.812 17.282-14.75 3.046-18.312z"/><path fill="#ed5564" d="M418.805 49.5l-57.578 3.797 2.671 38.437 5.907 45.375 20.968 17.172 28.032-1.906 18.672-10.687 4.187-35.079z"/><path d="M288.477 458.656c0-17.656-14.328-32-32-32s-32 14.344-32 32c0 17.688 14.328 32 32 32s32-14.312 32-32zm-32 10.688c-5.875 0-10.672-4.797-10.672-10.688 0-5.875 4.797-10.656 10.672-10.656s10.672 4.781 10.672 10.656c-.001 5.891-4.797 10.688-10.672 10.688z"/><path d="M448.008 116.953c0-2.422-.203-4.828-.562-7.141l-.266-1.438c-.047-.219-.078-.453-.109-.656l-19.922-48.906V42.656C427.148 19.094 408.039 0 384.477 0h-256c-23.562 0-42.672 19.094-42.672 42.656v13.812l-20.859 51.234c-.062.25-.094.516-.141.766l-.25 1.344a46.729 46.729 0 00-.562 7.141c0 16.484 8.734 30.922 21.812 38.969v313.422c0 23.562 19.109 42.656 42.672 42.656h256c23.562 0 42.672-19.094 42.672-42.656V155.312c12.546-8.156 20.859-22.281 20.859-38.359zm-45.719 24.391c-7.75 0-14.859-3.562-19.516-9.781L380.086 128h43.922c-4.031 7.906-12.25 13.344-21.719 13.344zM87.992 128h43.922l-2.688 3.562c-4.656 6.219-11.766 9.781-19.516 9.781-9.468.001-17.687-5.437-21.718-13.343zm17.781-64h39.328l-6.281 42.656H88.398L105.773 64zm300.454 0l17.375 42.656h-50.328L366.93 64h39.297zm-60.875 0l6.359 42.656h-49.578L300.055 64h45.297zm-66.657 0l2.094 42.656h-49.656L233.289 64h45.406zm-68.937 42.656h-49.375L166.664 64h45.266l-2.172 42.656zM205.055 128l-2.688 3.562c-4.656 6.219-11.766 9.781-19.516 9.781-7.734 0-14.844-3.562-19.516-9.781L160.664 128h44.391zm73.14 0l-2.688 3.562c-4.656 6.219-11.766 9.781-19.5 9.781-7.75 0-14.859-3.562-19.531-9.781L233.805 128h44.39zm73.141 0l-2.672 3.562c-4.672 6.219-11.781 9.781-19.516 9.781-7.75 0-14.859-3.562-19.516-9.781L306.945 128h44.391zM128.477 21.344h256c11.766 0 21.328 9.562 21.328 21.312H107.148c0-11.75 9.563-21.312 21.329-21.312zm256 469.312h-256c-11.766 0-21.328-9.562-21.328-21.312v-42.688h298.656v42.688c0 11.75-9.563 21.312-21.328 21.312zm21.328-85.312H107.148v-242.75c.844.047 1.703.062 2.562.062 14.953 0 28.234-7.172 36.578-18.281 8.344 11.109 21.609 18.281 36.562 18.281s28.234-7.172 36.578-18.281c8.344 11.109 21.609 18.281 36.578 18.281 14.953 0 28.219-7.172 36.562-18.281 8.344 11.109 21.625 18.281 36.578 18.281s28.219-7.172 36.562-18.281c8.344 11.109 21.625 18.281 36.578 18.281 1.188 0 2.359-.047 3.516-.141v242.829h.003z"/><path d="M384.492 352a10.617 10.617 0 00-7.547 3.125l-21.328 21.344a10.575 10.575 0 00-3.125 7.531c0 5.891 4.766 10.656 10.672 10.656 2.938 0 5.609-1.188 7.531-3.125l21.344-21.312a10.715 10.715 0 003.125-7.562c0-5.876-4.781-10.657-10.672-10.657zm0-42.656a10.617 10.617 0 00-7.547 3.125l-64 64A10.642 10.642 0 00309.82 384c0 5.891 4.781 10.656 10.672 10.656 2.938 0 5.609-1.188 7.547-3.125l64-63.984a10.678 10.678 0 003.125-7.547c0-5.891-4.781-10.656-10.672-10.656z"/></svg>