<svg xmlns="http://www.w3.org/2000/svg" viewBox="0 0 512 512"><path d="M166.4 375.467c-14.507 0-25.6-11.093-25.6-25.6v-204.8c0-14.507 11.093-25.6 25.6-25.6h136.533V34.133c0-13.653-11.093-25.6-25.6-25.6H55.467c-14.507 0-25.6 11.093-25.6 25.6v443.733c0 13.653 11.093 25.6 25.6 25.6h221.867c13.653 0 25.6-11.093 25.6-25.6v-102.4H166.4v.001z" fill="#fcc309"/><path d="M166.4 375.467c-14.507 0-25.6-11.093-25.6-25.6v-204.8c0-14.507 11.093-25.6 25.6-25.6h136.533V59.733H29.867V435.2h273.067v-59.733H166.4z" fill="#ffdd09"/><path d="M46.933 477.867V34.133c0-13.653 11.093-25.6 25.6-25.6H55.467c-13.653 0-25.6 11.093-25.6 25.6v443.733c0 13.653 11.093 25.6 25.6 25.6h17.067c-13.654.001-25.601-11.093-25.601-25.599" fill="#fff"/><path d="M465.067 375.467H166.4c-14.507 0-25.6-11.093-25.6-25.6v-204.8c0-14.507 11.093-25.6 25.6-25.6h298.667c14.507 0 25.6 11.093 25.6 25.6v204.8c0 14.506-11.094 25.6-25.6 25.6" fill="#ffdd09"/><path fill="#fcc309" d="M140.8 213.333h349.867v-51.2H140.8z"/><path d="M465.067 119.467H448c14.507 0 25.6 11.093 25.6 25.6v204.8c0 14.507-11.093 25.6-25.6 25.6h17.067c14.507 0 25.6-11.093 25.6-25.6v-204.8c0-14.507-11.094-25.6-25.6-25.6" fill="#fd9808"/><path fill="#54c9fd" d="M345.6 341.333h110.933V281.6H345.6z"/><path fill="#33a9f8" d="M439.467 341.333h17.066V281.6h-17.066z"/><path d="M200.533 42.667h-42.667c-5.12 0-8.533-3.413-8.533-8.533s3.413-8.533 8.533-8.533h42.667c5.12 0 8.533 3.413 8.533 8.533s-3.413 8.533-8.533 8.533zm-68.266 0h-8.533c-5.12 0-8.533-3.413-8.533-8.533s3.413-8.533 8.533-8.533h8.533c5.12 0 8.533 3.413 8.533 8.533s-3.413 8.533-8.533 8.533zM21.333 102.4c-5.12 0-8.533-3.413-8.533-8.533v-8.533c0-5.12 3.413-8.533 8.533-8.533s8.533 3.413 8.533 8.533v8.533c.001 5.12-3.413 8.533-8.533 8.533zm0 34.133c-5.12 0-8.533-3.413-8.533-8.533v-8.533c0-5.12 3.413-8.533 8.533-8.533s8.533 3.413 8.533 8.533V128c.001 5.12-3.413 8.533-8.533 8.533zm0 34.134c-5.12 0-8.533-3.413-8.533-8.533V153.6c0-5.12 3.413-8.533 8.533-8.533s8.533 3.413 8.533 8.533v8.533c.001 5.12-3.413 8.534-8.533 8.534zm145.067 332.8c-18.773 0-34.133-15.36-34.133-34.133 0-18.773 15.36-34.133 34.133-34.133s34.133 15.36 34.133 34.133c0 18.773-15.36 34.133-34.133 34.133zm0-51.2c-9.387 0-17.067 7.68-17.067 17.067s7.68 17.067 17.067 17.067 17.067-7.68 17.067-17.067-7.68-17.067-17.067-17.067zM465.067 384H166.4c-18.773 0-34.133-15.36-34.133-34.133v-204.8c0-18.773 15.36-34.133 34.133-34.133h298.667c18.773 0 34.133 15.36 34.133 34.133v204.8c0 18.773-15.36 34.133-34.133 34.133zM166.4 128c-9.387 0-17.067 7.68-17.067 17.067v204.8c0 9.387 7.68 17.067 17.067 17.067h298.667c9.387 0 17.067-7.68 17.067-17.067v-204.8c0-9.387-7.68-17.067-17.067-17.067H166.4z"/><path d="M490.667 221.867H140.8c-5.12 0-8.533-3.413-8.533-8.533v-51.2c0-5.12 3.413-8.533 8.533-8.533h349.867c5.12 0 8.533 3.413 8.533 8.533v51.2c0 5.119-3.413 8.533-8.533 8.533zM149.333 204.8h332.8v-34.133h-332.8V204.8zm307.2 145.067H345.6c-5.12 0-8.533-3.413-8.533-8.533V281.6c0-5.12 3.413-8.533 8.533-8.533h110.933c5.12 0 8.533 3.413 8.533 8.533v59.733c.001 5.12-3.413 8.534-8.533 8.534zm-102.4-17.067H448v-42.667h-93.867V332.8zM217.6 264.533h-42.667c-5.12 0-8.533-3.413-8.533-8.533s3.413-8.533 8.533-8.533H217.6c5.12 0 8.533 3.413 8.533 8.533s-3.413 8.533-8.533 8.533zm84.48 0h-55.467c-5.12 0-8.533-3.413-8.533-8.533s3.413-8.533 8.533-8.533h55.467c5.12 0 8.533 3.413 8.533 8.533s-3.413 8.533-8.533 8.533zm-42.667 34.134h-84.48c-5.12 0-8.533-3.413-8.533-8.533 0-5.12 3.413-8.533 8.533-8.533h84.48c5.12 0 8.533 3.413 8.533 8.533.001 5.119-4.266 8.533-8.533 8.533zm42.667 0h-16.213c-5.12 0-8.533-3.413-8.533-8.533 0-5.12 3.413-8.533 8.533-8.533h16.213c5.12 0 8.533 3.413 8.533 8.533 0 5.119-3.413 8.533-8.533 8.533z"/><path d="M311.467 443.733H21.333V51.2h290.133V128H166.4c-9.387 0-17.067 7.68-17.067 17.067v204.8c0 9.387 7.68 17.067 17.067 17.067h145.067v76.799zM38.4 426.667h256V384h-128c-18.773 0-34.133-15.36-34.133-34.133v-204.8c0-18.773 15.36-34.133 34.133-34.133h128V68.267h-256v358.4z"/><path d="M277.333 512H55.467c-18.773 0-34.133-15.36-34.133-34.133V34.133C21.333 15.36 36.693 0 55.467 0h221.867c18.773 0 34.133 15.36 34.133 34.133V128H166.4c-9.387 0-17.067 7.68-17.067 17.067v204.8c0 9.387 7.68 17.067 17.067 17.067h145.067v110.933c0 18.773-15.36 34.133-34.134 34.133zM55.467 17.067c-9.387 0-17.067 7.68-17.067 17.067v443.733c0 9.387 7.68 17.067 17.067 17.067h221.867c9.387 0 17.067-7.68 17.067-17.067V384h-128c-18.773 0-34.133-15.36-34.133-34.133v-204.8c0-18.773 15.36-34.133 34.133-34.133h128v-76.8c0-9.387-7.68-17.067-17.067-17.067H55.467z"/></svg>