<svg xmlns="http://www.w3.org/2000/svg" viewBox="0 0 512 512"><path d="M268.371 194.538c15.208 0 27.548 12.339 27.548 27.559s-12.339 27.559-27.548 27.559c-15.22 0-27.559-12.339-27.559-27.559-.001-15.22 12.339-27.559 27.559-27.559z" fill="#ffdb6f"/><path fill="#f27258" d="M269.316 331.495l51.374 51.375H58.532v-29.88l116.139-116.128z"/><path d="M269.316 331.495l-94.644-94.633L58.532 352.99V153.94H393.42v210.025l-79.366-77.885-43.899 44.576-.839.839zm26.603-109.398c0-15.22-12.339-27.559-27.548-27.559-15.22 0-27.559 12.339-27.559 27.559s12.339 27.559 27.559 27.559c15.208.001 27.548-12.339 27.548-27.559z" fill="#31ccc9"/><path fill="#f27258" d="M393.42 363.964v18.906h-72.73l-51.374-51.375.839-.84 43.899-44.575z"/><g fill="#e4f5f4"><path d="M500.1 58.875v348.743h-59.574V118.496c0-6.438-5.225-11.663-11.663-11.663H71V58.875c0-6.403 5.202-11.605 11.605-11.605h405.88c6.414.001 11.615 5.202 11.615 11.605z"/><path d="M440.526 407.618v47.899c0 6.45-5.225 11.663-11.663 11.663H23.089c-6.438 0-11.663-5.213-11.663-11.663V118.496c0-6.438 5.225-11.663 11.663-11.663h405.775c6.438 0 11.663 5.225 11.663 11.663v289.122zM393.42 382.87V153.939H58.532v228.93H393.42z"/></g><g fill="#201f2e"><path d="M488.727 34.376H82.844c-12.833 0-23.273 10.441-23.273 23.273v36.295H23.326C10.464 93.944 0 104.408 0 117.27v337.028c0 12.862 10.464 23.326 23.326 23.326h405.778c12.862 0 23.326-10.464 23.326-23.326V117.27c0-12.862-10.464-23.326-23.326-23.326H82.883l-.04-36.242 405.831-.052v348.737c0 6.441 5.223 11.663 11.663 11.663S512 412.828 512 406.387V57.65c0-12.833-10.441-23.274-23.273-23.274zm-59.623 82.894v337.028l-405.778.014V117.27h47.817c.03 0 .059.005.09.005.03 0 .059-.005.09-.005h357.781z"/><path d="M47.104 152.711v228.934c0 6.441 5.221 11.663 11.663 11.663h334.895c6.44 0 11.663-5.221 11.663-11.663V152.711c0-6.441-5.223-11.663-11.663-11.663H58.767c-6.442 0-11.663 5.222-11.663 11.663zm334.895 217.271h-56.241l-40.049-40.049 28.585-28.586 65.944 65.935a11.683 11.683 0 001.762 1.445v1.255h-.001zM70.43 164.374h311.569v171.684l-59.46-59.452c-4.553-4.553-11.937-4.553-16.494 0l-36.831 36.831-86.056-86.056c-4.554-4.554-11.938-4.553-16.494 0L70.43 323.61V164.374zm0 192.223l104.48-104.473 117.858 117.858H70.43v-13.385z"/><path d="M268.604 260.089c21.624 0 39.218-17.593 39.218-39.218s-17.593-39.216-39.218-39.216c-21.624 0-39.216 17.592-39.216 39.216-.001 21.625 17.592 39.218 39.216 39.218zm0-55.109c8.763 0 15.892 7.128 15.892 15.891s-7.128 15.892-15.892 15.892c-8.762 0-15.891-7.13-15.891-15.892-.001-8.763 7.129-15.891 15.891-15.891z"/></g></svg>