<svg xmlns="http://www.w3.org/2000/svg" viewBox="0 0 512 512"><path d="M346.9 449.638h-92.314c-7.811 0-14.143-6.332-14.143-14.143 0-7.811 6.332-14.143 14.143-14.143H346.9c7.81 0 14.143 6.332 14.143 14.143 0 7.811-6.333 14.143-14.143 14.143zm-181.774.002c-6.997 0-13.077-5.189-14.006-12.314l-25.239-193.377c-12.372-80.837 18.586-162.352 80.816-212.773 23.082-18.702 41.741-29.003 42.523-29.433a14.145 14.145 0 0113.705.057c.836.468 20.745 11.678 44.89 31.777 60.531 50.385 90.522 131.182 78.27 210.858-1.187 7.721-8.419 13.016-16.127 11.829-7.721-1.187-13.017-8.408-11.829-16.129 10.753-69.925-15.46-140.744-68.408-184.819-13.93-11.595-26.419-20.02-33.76-24.671-6.94 4.329-18.471 11.988-31.456 22.509-54.488 44.148-81.555 115.673-70.64 186.66.017.106.031.212.045.32l25.258 193.532c1.011 7.745-4.449 14.843-12.194 15.854-.62.08-1.238.12-1.848.12z" fill="#2d527c"/><path d="M165.145 435.495l-16.092-123.309-34.987 35.811a86.706 86.706 0 00-24.687 60.594v76.403l76-49.498h-.234z" fill="#cee8fa"/><path d="M89.377 499.137a14.142 14.142 0 01-14.142-14.143v-76.403c0-26.496 10.197-51.525 28.713-70.477l34.987-35.811a14.144 14.144 0 0124.14 8.053l15.767 120.818.091.294a14.142 14.142 0 01-5.84 15.877l-75.998 49.498a14.11 14.11 0 01-7.718 2.294zm49.422-156.218l-14.618 14.962c-13.323 13.637-20.659 31.645-20.659 50.709v50.313l46.466-30.262-11.189-85.722z" fill="#2d527c"/><path d="M397.934 347.998l-34.952-35.774-16.084 123.272h-.277l76 49.498v-76.403a86.7 86.7 0 00-24.687-60.593z" fill="#cee8fa"/><path d="M422.623 499.137a14.13 14.13 0 01-7.721-2.293l-75.998-49.498a14.14 14.14 0 01-5.673-16.399l15.727-120.554a14.138 14.138 0 019.548-11.586 14.133 14.133 0 0114.591 3.533l34.952 35.774c18.518 18.952 28.715 43.981 28.715 70.477v76.403a14.146 14.146 0 01-14.141 14.143zm-60.568-70.47l46.424 30.235v-50.313c0-19.064-7.337-37.074-20.659-50.709l-14.583-14.925-11.182 85.712z" fill="#2d527c"/><path fill="#cee8fa" d="M255.999 497.858l-39.773-62.363 39.773-62.361 39.774 62.361z"/><path d="M255.999 512a14.14 14.14 0 01-11.924-6.538L204.302 443.1a14.142 14.142 0 010-15.211l39.773-62.361a14.144 14.144 0 0123.85 0l39.773 62.361a14.15 14.15 0 010 15.211l-39.773 62.362A14.146 14.146 0 01255.999 512zm-22.998-76.505l22.998 36.061 23-36.061-23-36.061-22.998 36.061z" fill="#2d527c"/><circle cx="256.005" cy="241.268" r="47.139" fill="#cee8fa"/><path d="M255.999 302.552c-33.794 0-61.287-27.493-61.287-61.287s27.493-61.287 61.287-61.287 61.287 27.493 61.287 61.287-27.493 61.287-61.287 61.287zm0-94.287c-18.197 0-33 14.804-33 33 0 18.197 14.804 33 33 33s33-14.804 33-33c0-18.196-14.803-33-33-33zm0-66.002h-99.004c-7.811 0-14.143-6.332-14.143-14.143s6.332-14.143 14.143-14.143h99.004c7.81 0 14.143 6.332 14.143 14.143s-6.332 14.143-14.143 14.143zm97.762 0H310.45c-7.81 0-14.143-6.332-14.143-14.143s6.333-14.143 14.143-14.143h43.311c7.81 0 14.143 6.332 14.143 14.143s-6.332 14.143-14.143 14.143z" fill="#2d527c"/></svg>