<svg xmlns="http://www.w3.org/2000/svg" viewBox="0 0 512 512"><path d="M501.801 313.316V198.684h-52.94a199.942 199.942 0 00-15.958-38.527l37.434-37.434-81.059-81.058-37.434 37.434a199.88 199.88 0 00-38.527-15.958V10.199H198.684v52.94a199.942 199.942 0 00-38.527 15.958l-37.434-37.433-81.058 81.058 37.434 37.434a199.88 199.88 0 00-15.958 38.527H10.199v114.634h52.94a199.942 199.942 0 0015.958 38.527l-37.433 37.433 81.058 81.058 37.434-37.434a199.88 199.88 0 0038.527 15.958V501.8h114.634v-52.94a199.942 199.942 0 0038.527-15.958l37.434 37.434 81.058-81.058-37.434-37.434a199.88 199.88 0 0015.958-38.527h52.94v-.001zM256 348.038c-50.831 0-92.038-41.207-92.038-92.038s41.207-92.038 92.038-92.038 92.038 41.207 92.038 92.038-41.207 92.038-92.038 92.038z" fill="#ffca12"/><path d="M313.316 512H198.684c-5.633 0-10.199-4.566-10.199-10.199v-45.473a211.017 211.017 0 01-26.398-10.931l-32.153 32.153c-3.982 3.983-10.441 3.983-14.424 0l-81.059-81.06c-3.983-3.983-3.983-10.441 0-14.424l32.153-32.153a210.685 210.685 0 01-10.932-26.398H10.199C4.566 323.516 0 318.95 0 313.317V198.684c0-5.633 4.566-10.199 10.199-10.199h45.473a210.81 210.81 0 0110.932-26.398l-32.153-32.153c-3.983-3.983-3.983-10.441 0-14.424l81.059-81.059c3.982-3.983 10.441-3.983 14.424 0l32.153 32.153a210.81 210.81 0 0126.398-10.932V10.199C188.484 4.566 193.051 0 198.684 0h114.634c5.633 0 10.199 4.566 10.199 10.199v45.473a210.871 210.871 0 0126.398 10.932l32.153-32.153c3.982-3.983 10.441-3.983 14.424 0l81.059 81.059c3.983 3.983 3.983 10.441 0 14.424l-32.153 32.153a210.467 210.467 0 0110.931 26.398h45.472c5.633 0 10.199 4.566 10.199 10.199v114.634c0 5.633-4.566 10.199-10.199 10.199h-45.473a210.83 210.83 0 01-10.931 26.398l32.153 32.153c3.983 3.983 3.983 10.441 0 14.424l-81.06 81.058c-3.982 3.983-10.441 3.983-14.424 0l-32.153-32.153a210.653 210.653 0 01-26.398 10.931V501.8c.001 5.634-4.566 10.2-10.199 10.2zm-104.433-20.398h94.236v-42.741a10.2 10.2 0 017.298-9.778 190.24 190.24 0 0036.563-15.144 10.201 10.201 0 0112.079 1.751l30.222 30.222 66.634-66.634-30.222-30.222a10.202 10.202 0 01-1.751-12.079 190.092 190.092 0 0015.144-36.563 10.2 10.2 0 019.778-7.298h42.739V208.88h-42.741a10.2 10.2 0 01-9.778-7.298 190.145 190.145 0 00-15.144-36.563 10.2 10.2 0 011.751-12.079l30.222-30.222-66.634-66.634-30.222 30.222a10.2 10.2 0 01-12.079 1.751 190.123 190.123 0 00-36.563-15.144 10.2 10.2 0 01-7.298-9.778V20.398h-94.236v42.741a10.2 10.2 0 01-7.298 9.778 190.24 190.24 0 00-36.563 15.144 10.204 10.204 0 01-12.079-1.751l-30.222-30.222-66.634 66.634 30.222 30.222a10.202 10.202 0 011.751 12.079 190.134 190.134 0 00-15.144 36.563 10.2 10.2 0 01-9.778 7.298H20.398v94.236h42.741a10.2 10.2 0 019.778 7.298 190.187 190.187 0 0015.144 36.563 10.2 10.2 0 01-1.751 12.079l-30.222 30.222 66.634 66.634 30.222-30.222a10.204 10.204 0 0112.079-1.751 190.123 190.123 0 0036.563 15.144 10.2 10.2 0 017.298 9.778v42.738h-.001zM256 358.237c-56.373 0-102.237-45.863-102.237-102.237S199.627 153.763 256 153.763 358.237 199.627 358.237 256 312.373 358.237 256 358.237zm0-184.075c-45.125 0-81.838 36.713-81.838 81.838 0 45.125 36.713 81.838 81.838 81.838 45.126 0 81.838-36.713 81.838-81.838S301.126 174.162 256 174.162z"/><path d="M256 394.954c-5.633 0-10.199-4.566-10.199-10.199s4.566-10.199 10.199-10.199c50.206 0 95.15-31.792 111.838-79.111 1.873-5.312 7.697-8.099 13.011-6.226 5.312 1.874 8.099 7.698 6.226 13.011-19.56 55.46-72.235 92.724-131.075 92.724zm128.62-122.635c-.16 0-.321-.003-.483-.011-5.627-.262-9.975-5.036-9.713-10.664.088-1.875.132-3.774.132-5.643 0-5.633 4.566-10.199 10.199-10.199s10.199 4.566 10.199 10.199c0 2.186-.052 4.404-.154 6.595-.255 5.464-4.766 9.723-10.18 9.723z"/></svg>