<svg xmlns="http://www.w3.org/2000/svg" viewBox="0 0 512 512"><path fill="#cee8fa" d="M334.221 378.497L256 442.533l-78.221-64.036 51.463-229.45h53.516z"/><g fill="#2d527c"><path d="M256 457.971a15.408 15.408 0 01-9.778-3.492l-78.221-64.034a15.441 15.441 0 01-5.284-15.325l51.464-229.452a15.438 15.438 0 0115.062-12.06h53.515a15.433 15.433 0 0115.062 12.06l51.464 229.452A15.44 15.44 0 01344 390.445l-78.221 64.034a15.413 15.413 0 01-9.779 3.492zm-61.075-85.385L256 422.583l61.075-49.997L270.4 164.484h-28.798l-46.677 208.102z"/><path d="M165.277 191.22a29.846 29.846 0 01-26.061-15.311L97.001 100.09a15.42 15.42 0 01-1.95-7.509v-54.3C95.051 17.173 112.225 0 133.337 0c6.783 0 13.505 1.856 19.437 5.366l100.422 59.417a15.436 15.436 0 014.514 22.514l-68.55 91.931c-5.682 7.62-14.387 11.992-23.883 11.992zM125.926 88.572l39.466 70.882 57.301-76.844-85.641-50.673c-1.192-.705-2.442-1.062-3.714-1.062-3.564 0-7.412 2.831-7.412 7.407v50.29z"/><path d="M346.726 191.22h-.003c-9.494-.002-18.199-4.372-23.882-11.993l-68.55-91.931a15.431 15.431 0 01-2.76-12.262 15.445 15.445 0 017.274-10.252L359.227 5.363C365.159 1.854 371.879 0 378.663 0c21.111 0 38.286 17.173 38.286 38.282v54.3c0 2.627-.672 5.213-1.95 7.509l-42.215 75.819a29.843 29.843 0 01-26.058 15.31zM289.308 82.61l57.301 76.844 39.466-70.882v-50.29c0-4.576-3.847-7.407-7.411-7.407-1.274 0-2.524.357-3.714 1.062L289.308 82.61z"/></g><path fill="#cee8fa" d="M266.667 78.068h-21.333l-46.13 61.866 10.62 32.432h92.352l10.62-32.434z"/><path d="M302.176 187.804h-92.351a15.435 15.435 0 01-14.67-10.635l-10.619-32.434a15.434 15.434 0 012.296-14.031l46.13-61.864a15.437 15.437 0 0112.376-6.209h21.333a15.44 15.44 0 0112.376 6.209l46.129 61.864a15.44 15.44 0 012.296 14.031l-10.619 32.434a15.45 15.45 0 01-14.677 10.635zm-81.163-30.875h69.973l4.647-14.189-36.712-49.235h-5.842l-36.712 49.235 4.646 14.189zM408.359 512h-74.138c-8.526 0-15.437-6.913-15.437-15.437s6.911-15.437 15.437-15.437h74.138c26.841 0 48.679-21.838 48.679-48.679V183.031c0-8.247-3.211-15.998-9.043-21.83-6.028-6.028-6.028-15.803 0-21.833 6.028-6.027 15.803-6.027 21.833 0 11.663 11.663 18.085 27.17 18.085 43.662v249.414c0 43.868-35.688 79.556-79.554 79.556zm-167.796 0H103.641c-43.867 0-79.554-35.688-79.554-79.554V183.031c0-16.493 6.422-31.999 18.085-43.66l55.431-55.433c6.028-6.027 15.803-6.027 21.833 0 6.028 6.028 6.028 15.803 0 21.833l-55.433 55.431c-5.831 5.831-9.042 13.583-9.042 21.83v249.414c0 26.843 21.838 48.679 48.679 48.679h136.921c8.526 0 15.437 6.913 15.437 15.437S249.089 512 240.563 512z" fill="#2d527c"/></svg>