<svg xmlns="http://www.w3.org/2000/svg" viewBox="0 0 512 512"><path d="M119.182 461.228H16.568a8.552 8.552 0 01-8.551-8.551V59.324a8.552 8.552 0 018.551-8.551h102.614v410.455z" fill="#f1f4fb"/><path d="M93.528 50.772v154.503C64.531 208.84 42.221 230.158 42.221 256c0 25.842 22.31 47.159 51.307 50.724v154.503h25.653V50.772H93.528z" fill="#d5dced"/><path d="M367.165 8.017h-222.33c-14.168 0-25.653 11.485-25.653 25.653v42.756h273.637V33.67c-.001-14.168-11.486-25.653-25.654-25.653zm-222.33 495.966h222.33c14.168 0 25.653-11.485 25.653-25.653v-42.756H119.182v42.756c0 14.168 11.485 25.653 25.653 25.653z" fill="#5b5d6e"/><path fill="#e4eaf8" d="M119.182 76.426h273.637v25.653H119.182z"/><path d="M478.33 367.165H187.591c-14.168 0-25.653-11.485-25.653-25.653V170.489c0-14.168 11.485-25.653 25.653-25.653H478.33c14.168 0 25.653 11.485 25.653 25.653v171.023c0 14.168-11.485 25.653-25.653 25.653z" fill="#00c3ff"/><path d="M256 230.347h-34.205a8.552 8.552 0 01-8.551-8.551v-17.102a8.552 8.552 0 018.551-8.551H256a8.552 8.552 0 018.551 8.551v17.102a8.552 8.552 0 01-8.551 8.551z" fill="#ffdc64"/><circle cx="401.37" cy="204.693" r="25.653" fill="#ff5050"/><circle cx="444.125" cy="204.693" r="25.653" fill="#ffdc64"/><g fill="#8ce16e"><circle cx="102.079" cy="153.386" r="17.102"/><circle cx="102.079" cy="358.614" r="17.102"/></g><path d="M273.102 461.762h-34.205a8.017 8.017 0 000 16.034h34.205a8.017 8.017 0 000-16.034zM238.898 50.238h34.205a8.017 8.017 0 000-16.034h-34.205a8.017 8.017 0 000 16.034zm-25.654 0h.086c4.427 0 7.974-3.589 7.974-8.017s-3.632-8.017-8.059-8.017a8.017 8.017 0 00-.001 16.034z"/><path d="M478.33 136.818h-77.495V33.67c0-18.566-15.105-33.67-33.67-33.67h-222.33c-18.566 0-33.67 15.105-33.67 33.67v9.086H16.568C7.432 42.756 0 50.188 0 59.324v393.353c0 9.136 7.432 16.568 16.568 16.568h94.597v9.086c0 18.566 15.105 33.67 33.67 33.67h222.33c18.566 0 33.67-15.105 33.67-33.67V375.182h77.495c18.566 0 33.67-15.105 33.67-33.67V170.489c0-18.566-15.105-33.671-33.67-33.671zM127.198 33.67c0-9.725 7.912-17.637 17.637-17.637h222.33c9.725 0 17.637 7.912 17.637 17.637v34.739H127.198V33.67zm-76.96 260.563c12.46 12.885 31.071 21.09 51.841 21.09 3.051 0 6.084-.183 9.086-.533v20.413a24.984 24.984 0 00-9.086-1.707c-13.851-.001-25.119 11.267-25.119 25.118 0 13.851 11.268 25.119 25.119 25.119 3.203 0 6.266-.609 9.086-1.707v36.98H83.679c-3.255-16.863-16.579-30.187-33.441-33.441v-91.332zm60.927-164.259a24.984 24.984 0 00-9.086-1.707c-13.851 0-25.119 11.268-25.119 25.119 0 13.851 11.268 25.119 25.119 25.119 3.203 0 6.266-.609 9.086-1.707v20.413a78.218 78.218 0 00-9.086-.533c-20.771 0-39.381 8.205-51.841 21.09v-91.333c16.863-3.255 30.187-16.579 33.441-33.441h27.486v36.98zm0 23.412c0 5.01-4.076 9.086-9.086 9.086-5.01 0-9.086-4.076-9.086-9.086 0-5.01 4.076-9.086 9.086-9.086 5.01.001 9.086 4.076 9.086 9.086zm-9.086 59.324c3.065 0 6.098.25 9.086.693v18.189c-10.8 3.032-14.579 15.11-16.738 22.017-3.513 11.244-5.355 11.471-6.696 11.477-.948-.397-3.289-3.651-3.289-9.086 0-5.524 2.383-8.749 3.331-9.102a8.018 8.018 0 00-5.588-15.028c-6.211 2.31-10.882 8.39-12.807 16.113h-1.503a8.017 8.017 0 000 16.034h1.504c2.509 10.037 9.639 17.102 18.271 17.102 14.979 0 19.599-14.785 22.082-22.728.513-1.641.989-3.04 1.433-4.245v44.451a61.925 61.925 0 01-9.086.693c-28.585 0-51.841-19.419-51.841-43.29s23.256-43.29 51.841-43.29zm9.086 145.904c0 5.01-4.076 9.086-9.086 9.086-5.01 0-9.086-4.076-9.086-9.086s4.076-9.086 9.086-9.086c5.01 0 9.086 4.076 9.086 9.086zm-94.597 94.597a.534.534 0 01-.534-.534V59.324c0-.295.239-.534.534-.534h94.597v18.17H76.426a8.017 8.017 0 00-8.017 8.017c0 14.44-11.748 26.188-26.188 26.188a8.017 8.017 0 00-8.017 8.017v273.637a8.017 8.017 0 008.017 8.017c14.44 0 26.188 11.748 26.188 26.188a8.017 8.017 0 008.017 8.017h34.739v18.171H16.568zm350.597 42.756h-222.33c-9.725 0-17.637-7.912-17.637-17.637v-34.739h257.603v34.739c.001 9.725-7.911 17.637-17.636 17.637zm17.637-68.41H127.198V84.443h257.603v52.376h-197.21c-18.566 0-33.67 15.105-33.67 33.67v171.023c0 18.566 15.105 33.67 33.67 33.67h197.211v52.375zm111.165-86.046c0 9.725-7.912 17.637-17.637 17.637H187.591c-9.725 0-17.637-7.912-17.637-17.637V170.489c0-9.725 7.912-17.637 17.637-17.637h205.186l.042.002.042-.002h85.47c9.725 0 17.637 7.912 17.637 17.637v171.022z"/><path d="M323.875 264.551a8.017 8.017 0 00-8.017-8.017h-34.205a8.017 8.017 0 000 16.034h34.205a8.017 8.017 0 008.017-8.017zm-110.631 8.017h34.205a8.017 8.017 0 000-16.034h-34.205a8.017 8.017 0 000 16.034zm136.819 18.171H332.96a8.017 8.017 0 000 16.034h17.102a8.017 8.017 0 00.001-16.034zm-85.512 34.205h-51.307a8.017 8.017 0 000 16.034h51.307a8.017 8.017 0 000-16.034zm59.858 0h-25.653a8.017 8.017 0 000 16.034h25.653a8.017 8.017 0 000-16.034zm76.961-34.205h-17.102a8.017 8.017 0 000 16.034h17.102a8.017 8.017 0 000-16.034zm51.306-34.205h-34.205a8.017 8.017 0 000 16.034h34.205a8.017 8.017 0 000-16.034zm-102.613 16.034h34.205a8.017 8.017 0 000-16.034h-34.205a8.017 8.017 0 000 16.034zM256 188.125h-34.205c-9.136 0-16.568 7.432-16.568 16.568v17.102c0 9.136 7.432 16.568 16.568 16.568H256c9.136 0 16.568-7.432 16.568-16.568v-17.102c0-9.136-7.432-16.568-16.568-16.568zm.534 33.67a.534.534 0 01-.534.534h-34.205a.534.534 0 01-.534-.534v-17.102c0-.295.239-.534.534-.534H256c.295 0 .534.239.534.534v17.102zm187.591-50.772c-8.11 0-15.559 2.883-21.378 7.677-5.819-4.794-13.268-7.677-21.378-7.677-18.566 0-33.67 15.105-33.67 33.67s15.105 33.67 33.67 33.67c8.11 0 15.559-2.883 21.378-7.677 5.819 4.794 13.268 7.677 21.378 7.677 18.566 0 33.67-15.105 33.67-33.67s-15.104-33.67-33.67-33.67zm-60.392 33.67c0-9.725 7.912-17.637 17.637-17.637 4.514 0 8.624 1.719 11.747 4.518-1.712 4.034-2.662 8.467-2.662 13.119s.948 9.085 2.662 13.119c-3.123 2.799-7.233 4.518-11.747 4.518-9.725 0-17.637-7.912-17.637-17.637zm60.392 17.637c-4.514 0-8.624-1.719-11.747-4.518 1.712-4.034 2.662-8.467 2.662-13.119s-.948-9.085-2.662-13.119c3.122-2.799 7.233-4.518 11.747-4.518 9.725 0 17.637 7.912 17.637 17.637s-7.912 17.637-17.637 17.637zM42.221 418.964c-4.427 0-8.059 3.632-8.059 8.059s3.632 8.059 8.059 8.059 8.059-3.632 8.059-8.059c.001-4.427-3.631-8.059-8.059-8.059zm0-325.97c4.427 0 8.059-3.632 8.059-8.059s-3.632-8.059-8.059-8.059-8.059 3.632-8.059 8.059 3.632 8.059 8.059 8.059z"/></svg>