<svg xmlns="http://www.w3.org/2000/svg" viewBox="0 0 512 512"><g fill="#ffe100"><path d="M409.6 368.64c-2.56 0-5.12-.853-6.827-3.413-2.56-3.413-2.56-9.387 1.707-11.947 46.933-34.987 73.387-89.6 73.387-148.48 0-103.253-84.48-187.733-187.733-187.733-38.4 0-74.24 11.093-105.813 32.427-4.267 2.56-9.387 1.707-11.947-2.56s-1.707-9.387 2.56-11.947C209.067 11.947 248.32 0 290.133 0c112.64 0 204.8 92.16 204.8 204.8 0 64-29.013 123.733-80.213 162.133-1.707 1.707-3.413 1.707-5.12 1.707zm-238.933 0c-1.707 0-3.413-.853-5.12-1.707-51.2-38.4-80.213-98.133-80.213-162.133 0-5.12 3.413-8.533 8.533-8.533s8.533 3.413 8.533 8.533c0 58.88 26.453 113.493 73.387 149.333 3.413 2.56 4.267 8.533 1.707 11.947-1.707 1.707-4.267 2.56-6.827 2.56zm-51.2-291.84c-5.12 0-8.533-3.413-8.533-8.533V51.2c0-18.773-15.36-34.133-34.133-34.133S42.667 32.427 42.667 51.2v17.067c0 5.12-3.413 8.533-8.533 8.533S25.6 73.387 25.6 68.267V51.2C25.6 23.04 48.64 0 76.8 0S128 23.04 128 51.2v17.067c0 5.12-3.413 8.533-8.533 8.533z"/><path d="M17.067 170.667H153.6v-102.4H17.067z"/></g><path d="M100.693 136.533h-30.72c-.853 0-1.707-.853-1.707-1.707v-31.573s.853-.853 1.707-.853h31.573c.853 0 1.707.853 1.707 1.707v31.573c-.853 0-1.706.853-2.56.853" fill="#ffa800"/><g fill="#ffe100"><path d="M337.067 77.653c-4.267.853-8.533.853-12.8 1.707 53.76 11.947 93.867 59.733 93.867 116.907V384c0 57.173-40.107 104.96-93.867 116.907 4.267.853 8.533 1.707 12.8 1.707C396.8 496.64 443.733 445.44 443.733 384V196.267c0-61.44-46.933-112.64-106.666-118.614"/><path d="M324.267 503.467C258.56 503.467 204.8 449.707 204.8 384V196.267C204.8 130.56 258.56 76.8 324.267 76.8c5.973 0-40.107 0-34.133.853 58.027 8.533 102.4 58.027 102.4 118.613V384c0 60.587-44.373 110.08-102.4 118.613-5.974.854 40.106.854 34.133.854"/></g><path d="M311.467 77.653c-4.267.853-8.533.853-12.8 1.707 53.76 11.947 93.867 59.733 93.867 116.907V384c0 57.173-40.107 104.96-93.867 116.907 4.267.853 8.533 1.707 12.8 1.707C371.2 496.64 418.133 445.44 418.133 384V196.267c0-61.44-46.933-112.64-106.666-118.614" fill="#ffa800"/><path d="M204.8 384V196.267c0-57.173 40.107-104.96 93.867-116.907-2.56-.853-5.973-.853-8.533-1.707-2.56 0 5.973-.853 15.36-.853h-6.827C232.96 76.8 179.2 130.56 179.2 196.267V384c0 65.707 53.76 119.467 119.467 119.467h6.827c-9.387 0-17.92-.853-15.36-.853 2.56 0 5.973-.853 8.533-1.707C244.907 488.96 204.8 441.173 204.8 384" fill="#fff"/><path d="M298.667 512c-70.827 0-128-57.173-128-128V196.267c0-70.827 57.173-128 128-128s128 57.173 128 128v17.067c0 5.12-3.413 8.533-8.533 8.533s-8.533-3.413-8.533-8.533v-17.067c0-61.44-49.493-110.933-110.933-110.933s-110.933 49.493-110.933 110.933V384c0 61.44 49.493 110.933 110.933 110.933S409.6 445.44 409.6 384V281.6c0-5.12 3.413-8.533 8.533-8.533s8.533 3.413 8.533 8.533V384c.001 70.827-57.173 128-127.999 128z"/><path d="M426.667 247.467c0-5.12-3.413-8.533-8.533-8.533s-8.533 3.413-8.533 8.533c0 5.12 3.413 8.533 8.533 8.533s8.533-3.413 8.533-8.533"/><path d="M213.333 281.6v-85.333c0-46.933 38.4-85.333 85.333-85.333S384 149.333 384 196.267V281.6H213.333z" fill="#f80"/><path d="M213.333 281.6v-85.333c0-46.933 38.4-85.333 85.333-85.333s59.733 38.4 59.733 85.333V281.6H213.333z" fill="#ffa800"/><path d="M162.133 179.2H8.533V59.733h153.6V179.2zM25.6 162.133h119.467V76.8H25.6v85.333zM298.667 512c-70.827 0-128-57.173-128-128V196.267c0-70.827 57.173-128 128-128s128 57.173 128 128V384c0 70.827-57.174 128-128 128zm0-426.667c-61.44 0-110.933 49.493-110.933 110.933V384c0 61.44 49.493 110.933 110.933 110.933S409.6 445.44 409.6 384V196.267c0-61.44-49.493-110.934-110.933-110.934z"/><path d="M392.533 290.133H204.8v-93.867c0-52.053 41.813-93.867 93.867-93.867s93.867 41.813 93.867 93.867v93.867zm-170.666-17.066h153.6v-76.8c0-42.667-34.133-76.8-76.8-76.8s-76.8 34.133-76.8 76.8v76.8zM384 366.933H213.333c-5.12 0-8.533-3.413-8.533-8.533s3.413-8.533 8.533-8.533H384c5.12 0 8.533 3.413 8.533 8.533s-3.413 8.533-8.533 8.533zm0 34.134H213.333c-5.12 0-8.533-3.413-8.533-8.533s3.413-8.533 8.533-8.533H384c5.12 0 8.533 3.413 8.533 8.533s-3.413 8.533-8.533 8.533z"/><path d="M418.133 368.64c-2.56 0-5.12-.853-6.827-3.413-2.56-3.413-2.56-9.387 1.707-11.947 46.933-34.987 73.387-89.6 73.387-148.48 0-103.253-84.48-187.733-187.733-187.733-38.4 0-74.24 11.093-105.813 32.427-4.267 2.56-9.387 1.707-11.947-2.56-2.56-4.267-1.707-9.387 2.56-11.947C217.6 11.947 256.853 0 298.667 0c112.64 0 204.8 92.16 204.8 204.8 0 64-29.013 123.733-80.213 162.133-1.707 1.707-3.414 1.707-5.121 1.707zm-238.933 0c-1.707 0-3.413-.853-5.12-1.707-51.2-38.4-80.213-98.133-80.213-162.133 0-5.12 3.413-8.533 8.533-8.533 5.12 0 8.533 3.413 8.533 8.533 0 58.88 26.453 113.493 73.387 149.333 3.413 2.56 4.267 8.533 1.707 11.947-1.707 1.707-4.267 2.56-6.827 2.56zm-78.507-223.573h-30.72c-5.973 0-10.24-4.267-10.24-10.24v-31.573c0-5.12 4.267-9.387 10.24-9.387h31.573c5.12 0 10.24 4.267 10.24 10.24v31.573c-.853 5.12-5.119 9.387-11.093 9.387zM76.8 128h17.067v-17.067H76.8V128zM128 76.8c-5.12 0-8.533-3.413-8.533-8.533V51.2c0-18.773-15.36-34.133-34.133-34.133S51.2 32.427 51.2 51.2v17.067c0 5.12-3.413 8.533-8.533 8.533s-8.533-3.413-8.533-8.533V51.2c0-28.16 23.04-51.2 51.2-51.2s51.2 23.04 51.2 51.2v17.067c-.001 5.12-3.414 8.533-8.534 8.533z"/></svg>